<svg width="80" height="24" viewBox="0 0 80 24" fill="none" xmlns="http://www.w3.org/2000/svg">
<path d="M12.6162 11.7898L19.8306 19.5906H14.9066L10.1487 14.4675L5.41287 19.5906H0.5L7.70332 11.7898L0.854081 4.38728H5.77801L10.1487 9.14523L14.5415 4.38728H19.4654L12.6162 11.7898Z" fill="#FF4F4F"/>
<path d="M38.7734 13.7483C38.7734 14.7367 38.5299 15.6183 38.0431 16.3928C37.5562 17.1674 36.8628 17.8239 35.9628 18.3624C35.0703 18.8935 33.9859 19.2992 32.7097 19.5795C31.4409 19.8598 30.0172 20 28.4386 20C27.7452 20 27.0149 19.9705 26.2478 19.9115C25.488 19.8598 24.7429 19.7824 24.0126 19.6791C23.2897 19.5832 22.6111 19.4726 21.9767 19.3472C21.3423 19.2144 20.8075 19.0705 20.3722 18.9156V15.3084C20.8444 15.5076 21.3681 15.6957 21.9435 15.8728C22.5262 16.0498 23.1569 16.2084 23.8356 16.3485C24.5142 16.4813 25.2409 16.5883 26.0154 16.6694C26.7973 16.7432 27.6235 16.7801 28.494 16.7801C29.3128 16.7801 30.032 16.7321 30.6516 16.6362C31.2787 16.5403 31.8208 16.4112 32.2782 16.249C32.7355 16.0867 33.1154 15.9023 33.4179 15.6957C33.7203 15.4818 33.9638 15.2642 34.1482 15.0429C34.3326 14.8142 34.4617 14.5892 34.5355 14.3679C34.6166 14.1466 34.6572 13.9401 34.6572 13.7483V12.4094C33.9047 12.9627 33.0085 13.42 31.9684 13.7815C30.9283 14.1355 29.7443 14.3126 28.4165 14.3126C26.8748 14.3126 25.5876 14.1651 24.5548 13.87C23.5295 13.5675 22.707 13.136 22.0873 12.5754C21.4677 12.0074 21.0251 11.3177 20.7595 10.5062C20.5013 9.69479 20.3722 8.78008 20.3722 7.7621V4.38728H24.4995V7.3527C24.4995 7.95021 24.5769 8.48133 24.7319 8.94606C24.8941 9.41079 25.145 9.80175 25.4843 10.1189C25.831 10.4288 26.2773 10.6648 26.8231 10.8271C27.369 10.9894 28.0292 11.0705 28.8038 11.0705C29.4603 11.0705 30.0799 10.9894 30.6627 10.8271C31.2528 10.6648 31.795 10.4509 32.2893 10.1853C32.7835 9.91978 33.2298 9.61733 33.6281 9.27801C34.0265 8.93868 34.3695 8.59198 34.6572 8.2379V4.38728H38.7734V13.7483Z" fill="#FF4F4F"/>
<path d="M54.9841 19.5906V11.0705C54.9841 10.5025 54.9361 9.98986 54.8402 9.5325C54.7444 9.06777 54.5636 8.67312 54.2981 8.34855C54.0399 8.0166 53.6747 7.7621 53.2026 7.58506C52.7379 7.40065 52.1367 7.30844 51.399 7.30844C50.8384 7.30844 50.2483 7.38589 49.6286 7.5408C49.0164 7.68834 48.4078 7.88751 47.8029 8.13831C47.198 8.38912 46.6189 8.6805 46.0657 9.01245C45.5198 9.3444 45.033 9.6911 44.6051 10.0526V19.5906H40.5V4.38728H44.6051V6.4675C45.1215 6.17243 45.671 5.88105 46.2538 5.59336C46.8366 5.29829 47.4562 5.03273 48.1127 4.79668C48.7692 4.56063 49.4663 4.36883 50.204 4.2213C50.9417 4.07377 51.7199 4 52.5387 4C53.5641 4 54.4788 4.1254 55.2828 4.37621C56.0943 4.61964 56.7803 4.97003 57.3409 5.42739C57.9016 5.87736 58.3294 6.42692 58.6245 7.07607C58.9269 7.71784 59.0781 8.43707 59.0781 9.23375V19.5906H54.9841Z" fill="#FF4F4F"/>
<path d="M78.2497 18.8382C77.003 19.2513 75.7563 19.5463 74.5097 19.7234C73.2704 19.9078 72.0016 20 70.7033 20C69.0436 20 67.5645 19.823 66.2663 19.4689C64.9753 19.1074 63.8873 18.5874 63.0021 17.9087C62.1169 17.2301 61.4419 16.4002 60.9772 15.4191C60.5124 14.438 60.2801 13.3278 60.2801 12.0885C60.2801 10.9378 60.5124 9.87183 60.9772 8.89073C61.4493 7.90226 62.1132 7.04657 62.9689 6.32365C63.832 5.59336 64.8721 5.02536 66.0892 4.61964C67.3064 4.20655 68.6637 4 70.1611 4C71.5406 4 72.802 4.18811 73.9454 4.56432C75.0961 4.93315 76.0809 5.48271 76.8997 6.213C77.7259 6.94329 78.364 7.84325 78.814 8.91286C79.2713 9.98248 79.5 11.2144 79.5 12.6086V13.6266H64.518C64.6508 14.106 64.8684 14.545 65.1708 14.9433C65.4806 15.3416 65.8974 15.681 66.4212 15.9613C66.9449 16.2416 67.5867 16.4592 68.3465 16.6141C69.1137 16.769 70.0284 16.8465 71.0906 16.8465C71.843 16.8465 72.5807 16.8022 73.3036 16.7137C74.0265 16.6178 74.7015 16.4961 75.3285 16.3485C75.9555 16.1936 76.5198 16.024 77.0214 15.8396C77.5304 15.6551 77.9398 15.4707 78.2497 15.2863V18.8382ZM75.417 10.6169C75.3801 10.2407 75.2658 9.85339 75.074 9.45505C74.8896 9.04933 74.5945 8.68419 74.1888 8.35961C73.7831 8.03504 73.252 7.76948 72.5955 7.56293C71.9389 7.34901 71.1201 7.24205 70.139 7.24205C69.2169 7.24205 68.4202 7.35639 67.749 7.58506C67.0777 7.81374 66.5134 8.09774 66.056 8.43707C65.606 8.77639 65.2557 9.14154 65.0048 9.5325C64.754 9.92347 64.5917 10.2849 64.518 10.6169H75.417Z" fill="#FF4F4F"/>
</svg>
