<svg width="32" height="32" viewBox="0 0 32 32" fill="none" xmlns="http://www.w3.org/2000/svg">
<circle cx="16" cy="16" r="16" fill="#FF4F4F"/>
<path d="M19.96 22.48C20.008 22.784 20.112 23.016 20.272 23.176C20.432 23.32 20.664 23.392 20.968 23.392C21.288 23.392 21.56 23.296 21.784 23.104C22.024 22.912 22.224 22.592 22.384 22.144L22.792 20.92H23.272L22.648 22.768C22.296 23.712 21.816 24.376 21.208 24.76C20.616 25.144 19.896 25.336 19.048 25.336C18.088 25.336 17.328 25.192 16.768 24.904C16.208 24.616 15.792 24.192 15.52 23.632C15.248 23.072 15.056 22.392 14.944 21.592L13.552 10.408C13.504 10.056 13.4 9.808 13.24 9.664C13.096 9.52 12.88 9.448 12.592 9.448C12.288 9.448 12.008 9.56 11.752 9.784C11.512 10.008 11.304 10.368 11.128 10.864L10.72 12.088H10.24L10.864 10.24C11.216 9.296 11.72 8.632 12.376 8.248C13.048 7.864 13.848 7.672 14.776 7.672C15.624 7.672 16.304 7.808 16.816 8.08C17.344 8.336 17.752 8.744 18.04 9.304C18.328 9.848 18.52 10.552 18.616 11.416L19.96 22.48ZM24.496 8.08C24.24 8.08 23.976 8.136 23.704 8.248C23.448 8.344 23.184 8.488 22.912 8.68C22.464 9.064 21.936 9.688 21.328 10.552C20.72 11.416 20.088 12.504 19.432 13.816C18.792 15.112 18.184 16.616 17.608 18.328L17.872 16.504C18.224 15.464 18.656 14.424 19.168 13.384C19.68 12.344 20.224 11.4 20.8 10.552C21.376 9.688 21.92 9.016 22.432 8.536C23.152 7.96 23.88 7.672 24.616 7.672C25.416 7.672 26.048 7.944 26.512 8.488C26.976 9.016 27.208 9.672 27.208 10.456C27.208 11.304 26.952 11.984 26.44 12.496C25.928 12.992 25.312 13.24 24.592 13.24C24 13.24 23.52 13.064 23.152 12.712C22.8 12.36 22.624 11.864 22.624 11.224C22.624 10.504 22.856 9.872 23.32 9.328C23.784 8.784 24.384 8.432 25.12 8.272C25.056 8.208 24.976 8.16 24.88 8.128C24.784 8.096 24.656 8.08 24.496 8.08ZM8.632 24.928C8.92 24.928 9.192 24.872 9.448 24.76C9.72 24.648 9.992 24.504 10.264 24.328C10.744 23.976 11.32 23.408 11.992 22.624C12.664 21.84 13.352 20.848 14.056 19.648C14.776 18.448 15.44 17.064 16.048 15.496L15.688 17.32C15.32 18.248 14.856 19.184 14.296 20.128C13.752 21.056 13.176 21.904 12.568 22.672C11.96 23.44 11.36 24.064 10.768 24.544C10.048 25.072 9.296 25.336 8.512 25.336C7.728 25.336 7.104 25.072 6.64 24.544C6.16 24 5.92 23.336 5.92 22.552C5.92 21.704 6.176 21.032 6.688 20.536C7.2 20.024 7.816 19.768 8.536 19.768C9.144 19.768 9.624 19.944 9.976 20.296C10.328 20.648 10.504 21.144 10.504 21.784C10.504 22.504 10.272 23.136 9.808 23.68C9.344 24.208 8.744 24.56 8.008 24.736C8.072 24.8 8.152 24.848 8.248 24.88C8.344 24.912 8.472 24.928 8.632 24.928Z" fill="white"/>
</svg>
