<svg width="12" height="12" viewBox="0 0 12 12" fill="none" xmlns="http://www.w3.org/2000/svg">
<path fill-rule="evenodd" clip-rule="evenodd" d="M6.01834 0.400024C6.38653 0.400024 6.68501 0.698501 6.68501 1.06669V4.82079L9.93657 2.94345C10.2554 2.75935 10.6632 2.86859 10.8473 3.18745C11.0314 3.50631 10.9221 3.91404 10.6032 4.09814L7.35194 5.97534L10.6032 7.85254C10.9221 8.03664 11.0314 8.44436 10.8473 8.76322C10.6632 9.08208 10.2554 9.19133 9.93657 9.00723L6.68501 7.12988V10.8849C6.68501 11.2531 6.38653 11.5515 6.01834 11.5515C5.65015 11.5515 5.35167 11.2531 5.35167 10.8849V7.13023L2.1007 9.00723C1.78185 9.19133 1.37412 9.08208 1.19002 8.76322C1.00592 8.44436 1.11516 8.03664 1.43402 7.85254L4.68533 5.97534L1.43402 4.09814C1.11516 3.91404 1.00592 3.50631 1.19002 3.18745C1.37412 2.86859 1.78185 2.75935 2.1007 2.94345L5.35167 4.82045V1.06669C5.35167 0.698501 5.65015 0.400024 6.01834 0.400024Z" fill="#464B53"/>
</svg>
