<svg width="16" height="17" viewBox="0 0 16 17" fill="none" xmlns="http://www.w3.org/2000/svg">
<path fill-rule="evenodd" clip-rule="evenodd" d="M2.33341 3.42097C2.65228 3.23688 3.06 3.34613 3.2441 3.66499L4.08854 5.12761C5.22073 4.41244 6.5627 3.99832 8.00008 3.99832C9.43746 3.99832 10.7794 4.41244 11.9116 5.12761L12.7561 3.66499C12.9402 3.34613 13.3479 3.23688 13.6667 3.42097C13.9856 3.60507 14.0949 4.01279 13.9108 4.33165L12.9782 5.94685C14.4257 7.28573 15.3334 9.20285 15.3334 11.3317V12.653C15.3334 13.0278 15.0296 13.3317 14.6548 13.3317H1.34541C0.970536 13.3317 0.666748 13.0277 0.666748 12.653V11.3317C0.666748 9.20285 1.57445 7.28573 3.02193 5.94685L2.0894 4.33165C1.9053 4.01279 2.01455 3.60507 2.33341 3.42097ZM5.33341 7.99821C4.59703 7.99821 4.00008 8.59516 4.00008 9.33154C4.00008 10.0679 4.59703 10.6649 5.33341 10.6649C6.06979 10.6649 6.66675 10.0679 6.66675 9.33154C6.66675 8.59516 6.06979 7.99821 5.33341 7.99821ZM10.6667 7.99821C9.93037 7.99821 9.33341 8.59516 9.33341 9.33154C9.33341 10.0679 9.93037 10.6649 10.6667 10.6649C11.4031 10.6649 12.0001 10.0679 12.0001 9.33154C12.0001 8.59516 11.4031 7.99821 10.6667 7.99821Z" fill="#981DE2"/>
</svg>
