<svg width="24" height="24" viewBox="0 0 24 24" fill="none" xmlns="http://www.w3.org/2000/svg">
<rect width="24" height="24" rx="6" fill="#EDF1F5"/>
<path d="M7.72286 10.9286C7.88179 10.9286 7.99071 10.8282 8.0075 10.6775C8.30857 8.4425 8.38393 8.4425 10.6943 7.99893C10.845 7.97393 10.9539 7.87321 10.9539 7.71429C10.9539 7.56357 10.845 7.455 10.6943 7.42964C8.38393 7.11179 8.30036 7.03643 8.0075 4.75964C7.99071 4.60893 7.88179 4.5 7.72286 4.5C7.57214 4.5 7.46321 4.60893 7.44643 4.76786C7.17036 7.01107 7.05321 7.00286 4.75964 7.42964C4.60893 7.46321 4.5 7.56357 4.5 7.71429C4.5 7.88179 4.60893 7.97393 4.79286 7.99893C7.07 8.36714 7.17036 8.42571 7.44643 10.6607C7.46321 10.8282 7.57214 10.9286 7.72286 10.9286ZM13.3979 20.195C13.6157 20.195 13.7746 20.0357 13.8164 19.8096C14.4107 15.2229 15.0554 14.5279 19.5921 14.0257C19.8264 14.0007 19.9857 13.825 19.9857 13.6071C19.9857 13.3893 19.8264 13.2221 19.5921 13.1886C15.0554 12.6864 14.4107 11.9918 13.8164 7.40464C13.7746 7.17857 13.6157 7.02786 13.3979 7.02786C13.1804 7.02786 13.0214 7.17857 12.9879 7.40464C12.3936 11.9918 11.7407 12.6864 7.21214 13.1886C6.96929 13.2221 6.81036 13.3896 6.81036 13.6071C6.81036 13.825 6.96929 14.0007 7.21214 14.0257C11.7321 14.62 12.36 15.2311 12.9879 19.8096C13.0214 20.0357 13.1804 20.195 13.3979 20.195Z" fill="#485061"/>
</svg>
