<svg width="32" height="32" viewBox="0 0 32 32" fill="none" xmlns="http://www.w3.org/2000/svg">
<circle cx="16" cy="16" r="15.5" stroke="#D7DDE9"/>
<path d="M19.296 20.712C19.3827 21.1627 19.4953 21.4747 19.634 21.648C19.7727 21.8213 19.9547 21.908 20.18 21.908C20.4053 21.908 20.6307 21.778 20.856 21.518C21.0987 21.2407 21.3673 20.66 21.662 19.776L22 18.814H22.494L21.844 20.712C21.6013 21.4747 21.2633 22.0467 20.83 22.428C20.3967 22.8093 19.9287 23.0607 19.426 23.182C18.9233 23.3033 18.4467 23.364 17.996 23.364C17.0947 23.364 16.332 23.182 15.708 22.818C15.1013 22.4367 14.746 21.7347 14.642 20.712L13.602 11.794C13.5327 11.3433 13.4113 11.066 13.238 10.962C13.082 10.8407 12.8913 10.78 12.666 10.78C12.5273 10.78 12.38 10.8233 12.224 10.91C12.0853 10.9793 11.938 11.1527 11.782 11.43C11.626 11.7073 11.444 12.1407 11.236 12.73L10.898 13.692H10.404L11.054 11.794C11.2967 11.0313 11.6347 10.4593 12.068 10.078C12.5013 9.69667 12.978 9.44533 13.498 9.324C14.0353 9.20267 14.5467 9.142 15.032 9.142C15.9853 9.142 16.7393 9.34133 17.294 9.74C17.866 10.1387 18.2127 10.9447 18.334 12.158L19.296 20.712ZM19.946 11.144C19.582 11.6293 19.2613 12.1667 18.984 12.756C18.7067 13.3453 18.464 13.9347 18.256 14.524C18.0653 15.1133 17.9007 15.6507 17.762 16.136C17.762 16.136 17.6753 16.136 17.502 16.136C17.3287 16.1187 17.242 16.11 17.242 16.11C17.2767 15.9713 17.346 15.7113 17.45 15.33C17.5713 14.9313 17.7273 14.472 17.918 13.952C18.126 13.4147 18.3687 12.8687 18.646 12.314C18.9407 11.742 19.2613 11.2133 19.608 10.728C20.076 10.0867 20.57 9.662 21.09 9.454C21.6273 9.246 22.1387 9.142 22.624 9.142C23.3347 9.142 23.9153 9.33267 24.366 9.714C24.8167 10.0953 25.042 10.6413 25.042 11.352C25.042 12.028 24.8253 12.5827 24.392 13.016C23.9587 13.4493 23.3953 13.666 22.702 13.666C22.1647 13.666 21.6273 13.484 21.09 13.12C20.57 12.756 20.1887 12.0973 19.946 11.144ZM12.9 21.362C13.4547 20.6167 13.9053 19.7847 14.252 18.866C14.616 17.93 14.8933 17.098 15.084 16.37C15.084 16.37 15.1707 16.3787 15.344 16.396C15.5173 16.396 15.604 16.396 15.604 16.396C15.4827 16.8813 15.3093 17.4447 15.084 18.086C14.8587 18.7273 14.59 19.3773 14.278 20.036C13.9833 20.6773 13.6367 21.258 13.238 21.778C12.7527 22.402 12.2413 22.818 11.704 23.026C11.184 23.2513 10.6813 23.364 10.196 23.364C9.45067 23.364 8.87 23.182 8.454 22.818C8.02067 22.4367 7.804 21.9253 7.804 21.284C7.804 20.5213 8.04667 19.9233 8.532 19.49C9 19.0567 9.55467 18.84 10.196 18.84C10.8893 18.84 11.4527 19.074 11.886 19.542C12.3367 19.9927 12.6747 20.5993 12.9 21.362Z" fill="#17181B"/>
</svg>
