<svg width="16" height="16" viewBox="0 0 16 16" fill="none" xmlns="http://www.w3.org/2000/svg">
<path fill-rule="evenodd" clip-rule="evenodd" d="M11.3333 10.666L11.3333 4.66659C11.3333 4.29839 11.6318 3.99992 12 3.99992C12.3682 3.99992 12.6667 4.34012 12.6667 4.70832C12.6667 4.70832 12.6665 10.6598 12.6665 10.666C12.6665 10.6886 12.6661 10.7111 12.6653 10.7337C12.6641 10.7709 12.6617 10.8223 12.6572 10.886C12.6481 11.0131 12.6303 11.1903 12.5951 11.4012C12.5253 11.8198 12.3845 12.3883 12.0963 12.9647C11.8067 13.5438 11.362 14.1432 10.6823 14.5963C9.99848 15.0522 9.11667 15.3333 8.00001 15.3333C6.86981 15.3333 6.00154 15.0522 5.31767 14.5963C4.63807 14.1432 4.19327 13.5438 3.90374 12.9647C3.61547 12.3883 3.47467 11.8198 3.40494 11.4012C3.36974 11.1903 3.35194 11.0131 3.34287 10.886C3.33827 10.8223 3.33594 10.7709 3.33467 10.7337C3.33394 10.7113 3.33354 10.689 3.33334 10.6666C3.32374 8.82065 3.33314 4.18785 3.33334 3.99925C3.33334 3.98205 3.33381 3.96492 3.33434 3.94779C3.33527 3.92039 3.33701 3.88325 3.34027 3.83785C3.34674 3.74719 3.35934 3.62205 3.38407 3.47365C3.43301 3.17999 3.53214 2.77825 3.73707 2.36845C3.94327 1.95605 4.26307 1.52332 4.75521 1.19525C5.25154 0.864319 5.88334 0.666586 6.66667 0.666586C7.45001 0.666586 8.08181 0.864319 8.57814 1.19525C9.07027 1.52332 9.39008 1.95605 9.59629 2.36845C9.80119 2.77825 9.90033 3.17999 9.94927 3.47365C9.97401 3.62205 9.98663 3.74719 9.99311 3.83785C9.99635 3.88325 9.99807 3.92039 9.99899 3.94779C9.99955 3.96465 9.99995 3.98159 10 3.99845C10.0025 5.99699 10 7.99545 10 9.99391C9.99933 10.0284 9.99817 10.0702 9.99571 10.1047C9.99184 10.1589 9.98442 10.2319 9.9701 10.3179C9.94199 10.4865 9.88453 10.7216 9.76295 10.9647C9.64008 11.2105 9.44529 11.4765 9.14061 11.6796C8.83181 11.8855 8.45001 11.9999 8.00001 11.9999C7.55001 11.9999 7.16821 11.8855 6.85941 11.6796C6.55474 11.4765 6.35994 11.2105 6.23707 10.9647C6.11547 10.7216 6.05801 10.4865 6.02994 10.3179C6.01561 10.2319 6.00821 10.1589 6.00427 10.1047C6.00107 10.0591 6.00007 10.0309 6.00001 10.0013V4.66659C6.00001 4.29839 6.29847 3.99992 6.66667 3.99992C7.03487 3.99992 7.33334 4.29839 7.33334 4.66659V9.99391C7.33367 10.003 7.33587 10.0434 7.34507 10.0987C7.35867 10.18 7.38454 10.2782 7.42961 10.3684C7.47341 10.456 7.52861 10.5233 7.59901 10.5702C7.66514 10.6143 7.78334 10.6666 8.00001 10.6666C8.21667 10.6666 8.33487 10.6143 8.40101 10.5702C8.47141 10.5233 8.52661 10.456 8.57041 10.3684C8.61547 10.2782 8.64134 10.18 8.65494 10.0987C8.66414 10.0434 8.66634 10.003 8.66667 9.99391L8.66667 4.00279C8.66607 3.97945 8.66481 3.95612 8.66314 3.93285C8.65921 3.87765 8.65101 3.79445 8.63407 3.69285C8.59967 3.48652 8.53214 3.22159 8.40374 2.96472C8.27661 2.71045 8.09641 2.47652 7.83854 2.30459C7.58487 2.13552 7.21667 1.99992 6.66667 1.99992C6.11667 1.99992 5.74847 2.13552 5.49481 2.30459C5.23694 2.47652 5.05674 2.71045 4.92961 2.96472C4.80121 3.22159 4.73367 3.48652 4.69927 3.69285C4.68234 3.79445 4.67414 3.87765 4.67021 3.93285C4.66854 3.95612 4.66727 3.97945 4.66667 4.00285L4.66674 10.6673C4.66687 10.6789 4.66787 10.7224 4.6728 10.791C4.67934 10.8826 4.69274 11.0179 4.72007 11.182C4.77534 11.5133 4.88454 11.9449 5.09627 12.3684C5.30674 12.7894 5.61194 13.19 6.05727 13.4869C6.49847 13.781 7.11667 13.9999 8.00001 13.9999C8.88334 13.9999 9.50154 13.781 9.94271 13.4869C10.3881 13.19 10.6933 12.7894 10.9037 12.3684C11.1155 11.9449 11.2247 11.5133 11.2799 11.182C11.3073 11.0179 11.3207 10.8826 11.3272 10.791C11.3317 10.7287 11.3326 10.6952 11.3333 10.666Z" fill="currentColor"/>
</svg>
