<svg width="24" height="24" viewBox="0 0 24 24" fill="none" xmlns="http://www.w3.org/2000/svg">
<path opacity="0.4" fill-rule="evenodd" clip-rule="evenodd" d="M14.93 7.08984C9.74558 7.08984 9.07 7.08984 9.07 7.08984C6.78 7.08984 5.25 8.69984 5.25 11.0798V14.3398C5.25 16.7298 6.78 18.3298 9.07 18.3298H14.93C17.22 18.3298 18.75 16.7298 18.75 14.3398V11.0798C18.75 8.69984 17.22 7.08984 14.93 7.08984Z" fill="#3B4145"/>
<path fill-rule="evenodd" clip-rule="evenodd" d="M12.75 6.15008V7.09008H11.25V6.15008C10.53 5.85008 10.02 5.14008 10.02 4.31008C10.02 3.22008 10.91 2.33008 12 2.33008C13.09 2.33008 13.99 3.22008 13.99 4.31008C13.99 5.14008 13.47 5.85008 12.75 6.15008ZM12 3.83008C12.27 3.83008 12.49 4.05008 12.49 4.31008C12.49 4.57908 12.271 4.79808 12.003 4.80008L12 4.79908L11.997 4.80008C11.729 4.79808 11.52 4.57908 11.52 4.31008C11.52 4.05008 11.73 3.83008 12 3.83008Z" fill="#3B4145"/>
<path d="M14.25 11.9004C13.83 11.9004 13.5 11.5704 13.5 11.1604V11.1504C13.5 10.7304 13.83 10.4004 14.25 10.4004C14.66 10.4004 15 10.7304 15 11.1504C15 11.5604 14.66 11.9004 14.25 11.9004Z" fill="#3B4145"/>
<path d="M13.3801 15.1504H10.6201C10.2101 15.1504 9.87012 14.8204 9.87012 14.4004C9.87012 13.9904 10.2101 13.6504 10.6201 13.6504H13.3801C13.7901 13.6504 14.1301 13.9904 14.1301 14.4004C14.1301 14.8204 13.7901 15.1504 13.3801 15.1504Z" fill="#3B4145"/>
<path d="M9 11.1604V11.1504C9 10.7304 9.34 10.4004 9.75 10.4004C10.17 10.4004 10.5 10.7304 10.5 11.1504C10.5 11.5604 10.17 11.9004 9.75 11.9004C9.34 11.9004 9 11.5704 9 11.1604Z" fill="#3B4145"/>
<path d="M2.70312 11.252C2.70312 10.838 3.03912 10.502 3.45312 10.502C3.86714 10.502 4.20313 10.838 4.20313 11.252V14.028C4.20313 14.442 3.86714 14.778 3.45312 14.778C3.03912 14.778 2.70312 14.442 2.70312 14.028V11.252Z" fill="#3B4145"/>
<path d="M12.0022 19.3535C13.6572 19.3535 15.2332 19.7165 16.3272 20.3505C16.6852 20.5585 16.8072 21.0175 16.6002 21.3755C16.4612 21.6155 16.2092 21.7495 15.9502 21.7495C15.8232 21.7495 15.6932 21.7165 15.5752 21.6485C14.7032 21.1425 13.4012 20.8535 12.0022 20.8535C10.6192 20.8535 9.28019 21.1505 8.42119 21.6485C8.06019 21.8555 7.60319 21.7335 7.39519 21.3755C7.18819 21.0175 7.31019 20.5585 7.66919 20.3505C8.76319 19.7165 10.3422 19.3535 12.0022 19.3535Z" fill="#3B4145"/>
<path d="M20.5469 10.502C20.1329 10.502 19.7969 10.838 19.7969 11.252V14.028C19.7969 14.442 20.1329 14.778 20.5469 14.778C20.9609 14.778 21.2969 14.442 21.2969 14.028V11.252C21.2969 10.838 20.9609 10.502 20.5469 10.502Z" fill="#3B4145"/>
</svg>
