<svg width="32" height="32" viewBox="0 0 32 32" fill="none" xmlns="http://www.w3.org/2000/svg">
<path fill-rule="evenodd" clip-rule="evenodd" d="M16 3.99967C9.37262 3.99967 4.00004 9.37226 4.00004 15.9997C4.00004 22.6271 9.37262 27.9997 16 27.9997C22.6275 27.9997 28 22.6271 28 15.9997C28 9.37226 22.6275 3.99967 16 3.99967ZM1.33337 15.9997C1.33337 7.8995 7.89986 1.33301 16 1.33301C24.1002 1.33301 30.6667 7.8995 30.6667 15.9997C30.6667 24.0999 24.1002 30.6663 16 30.6663C7.89986 30.6663 1.33337 24.0999 1.33337 15.9997ZM22.9429 11.0569C23.4636 11.5776 23.4636 12.4218 22.9429 12.9425L14.9429 20.9425C14.4222 21.4632 13.5779 21.4632 13.0572 20.9425L9.05723 16.9425C8.53653 16.4218 8.53653 15.5776 9.05723 15.0569C9.57793 14.5362 10.4222 14.5362 10.9429 15.0569L14 18.1141L21.0572 11.0569C21.5779 10.5362 22.4222 10.5362 22.9429 11.0569Z" fill="#39B54A"/>
</svg>
