<svg width="16" height="17" viewBox="0 0 16 17" fill="none" xmlns="http://www.w3.org/2000/svg">
<path d="M10.794 1.49805C12.8533 1.49805 14 2.68471 14 4.71805V11.6047C14 13.6714 12.8533 14.8314 10.794 14.8314H5.20667C3.18 14.8314 2 13.6714 2 11.6047V4.71805C2 2.68471 3.18 1.49805 5.20667 1.49805H10.794ZM5.38667 10.658C5.18667 10.638 4.99333 10.7314 4.88667 10.9047C4.78 11.0714 4.78 11.2914 4.88667 11.4647C4.99333 11.6314 5.18667 11.7314 5.38667 11.7047H10.6133C10.8793 11.678 11.08 11.4507 11.08 11.1847C11.08 10.9114 10.8793 10.6847 10.6133 10.658H5.38667ZM10.6133 7.61738H5.38667C5.09933 7.61738 4.86667 7.85138 4.86667 8.13805C4.86667 8.42471 5.09933 8.65805 5.38667 8.65805H10.6133C10.9 8.65805 11.1333 8.42471 11.1333 8.13805C11.1333 7.85138 10.9 7.61738 10.6133 7.61738ZM7.37933 4.59805H5.38667V4.60471C5.09933 4.60471 4.86667 4.83805 4.86667 5.12471C4.86667 5.41138 5.09933 5.64471 5.38667 5.64471H7.37933C7.66667 5.64471 7.9 5.41138 7.9 5.11738C7.9 4.83138 7.66667 4.59805 7.37933 4.59805Z" fill="#395A0C"/>
</svg>
