<svg width="14" height="14" viewBox="0 0 14 14" fill="none" xmlns="http://www.w3.org/2000/svg">
<g clip-path="url(#clip0_429_933)">
<path d="M1.05446 11.4533L1.66997 12.5208C1.79786 12.7455 1.98196 12.9223 2.19822 13.0509L4.40607 11.4856L4.41009 9.23821L2.20681 8.24556L2.2388e-06 9.23031C-0.000435262 9.47886 0.0632484 9.72755 0.191163 9.95229L1.05446 11.4533Z" fill="#0066DD"/>
<path d="M7.00801 4.75256L7.12318 1.82503L4.80979 0.9319C4.59307 1.05981 4.40833 1.23588 4.27962 1.46015L0.19373 8.509C0.0650508 8.7333 0.0004375 8.98174 0 9.2303L4.41008 9.23817L7.00801 4.75256Z" fill="#00AD3C"/>
<path d="M7.00805 4.75256L9.12727 3.61249L9.21988 0.939775C9.00362 0.811096 8.75515 0.74651 8.49858 0.746045L5.53182 0.74074C5.27523 0.740275 5.02654 0.811998 4.80981 0.9319L7.00805 4.75256Z" fill="#00831E"/>
<path d="M9.58993 9.24746L4.41008 9.23822L2.19824 13.051C2.4145 13.1796 2.66298 13.2442 2.91954 13.2447L11.0662 13.2592C11.3228 13.2597 11.5714 13.188 11.7882 13.0681L11.7968 10.5071L9.58993 9.24746Z" fill="#0084FF"/>
<path d="M11.7882 13.0681C12.0049 12.9402 12.1897 12.7641 12.3183 12.5399L12.5757 12.0993L13.8063 9.97666C13.935 9.75239 13.9996 9.50394 14.0001 9.25536L11.4511 7.91412L9.59802 9.24751L11.7882 13.0681Z" fill="#FF4131"/>
<path d="M11.7784 5.00163L9.74808 1.46991C9.6202 1.24515 9.43609 1.06842 9.2198 0.939743L7.00793 4.75253L9.58982 9.24743L13.9919 9.25531C13.9923 9.00675 13.9286 8.75806 13.8007 8.5333L11.7784 5.00163Z" fill="#FFBA00"/>
</g>
<defs>
<clipPath id="clip0_429_933">
<rect width="14" height="14" fill="white"/>
</clipPath>
</defs>
</svg>
