<svg width="156" height="87" viewBox="0 0 156 87" fill="none" xmlns="http://www.w3.org/2000/svg">
<g clip-path="url(#clip0_1567_2768)">
<circle cx="47.3479" cy="24.9202" r="0.996808" transform="rotate(180 47.3479 24.9202)" fill="#DFE5EC"/>
<circle cx="108.652" cy="60.3069" r="0.996808" fill="#DFE5EC"/>
<circle cx="98.6833" cy="13.9553" r="0.996808" transform="rotate(-90 98.6833 13.9553)" fill="#DFE5EC"/>
<circle cx="57.3167" cy="71.2717" r="0.996808" transform="rotate(90 57.3167 71.2717)" fill="#DFE5EC"/>
<circle cx="0.996356" cy="12.9587" r="0.996808" transform="rotate(90 0.996356 12.9587)" fill="#DFE5EC"/>
<circle cx="155.004" cy="73.2654" r="0.996808" transform="rotate(-90 155.004 73.2654)" fill="#DFE5EC"/>
<circle cx="3.98659" cy="0.996808" r="0.996808" transform="rotate(90 3.98659 0.996808)" fill="#DFE5EC"/>
<circle cx="152.013" cy="85.2273" r="0.996808" transform="rotate(-90 152.013 85.2273)" fill="#DFE5EC"/>
<circle cx="47.3479" cy="27.9104" r="0.996808" transform="rotate(180 47.3479 27.9104)" fill="#DFE5EC"/>
<circle cx="108.652" cy="57.3166" r="0.996808" fill="#DFE5EC"/>
<circle cx="95.6931" cy="13.9553" r="0.996808" transform="rotate(-90 95.6931 13.9553)" fill="#DFE5EC"/>
<circle cx="60.3069" cy="71.2717" r="0.996808" transform="rotate(90 60.3069 71.2717)" fill="#DFE5EC"/>
<circle cx="3.98659" cy="12.9587" r="0.996808" transform="rotate(90 3.98659 12.9587)" fill="#DFE5EC"/>
<circle cx="6.9778" cy="0.996808" r="0.996808" transform="rotate(90 6.9778 0.996808)" fill="#DFE5EC"/>
<circle cx="149.022" cy="85.2273" r="0.996808" transform="rotate(-90 149.022 85.2273)" fill="#DFE5EC"/>
<circle cx="47.3479" cy="30.9011" r="0.996808" transform="rotate(180 47.3479 30.9011)" fill="#DFE5EC"/>
<circle cx="108.652" cy="54.3259" r="0.996808" fill="#DFE5EC"/>
<circle cx="92.7029" cy="13.9553" r="0.996808" transform="rotate(-90 92.7029 13.9553)" fill="#DFE5EC"/>
<circle cx="63.2971" cy="71.2717" r="0.996808" transform="rotate(90 63.2971 71.2717)" fill="#DFE5EC"/>
<circle cx="48.345" cy="15.949" r="0.996808" transform="rotate(180 48.345 15.949)" fill="#DFE5EC"/>
<circle cx="0.996808" cy="0.996808" r="0.996808" transform="matrix(-1 0 0 1 49.3418 68.7798)" fill="#DFE5EC"/>
<circle cx="107.655" cy="69.2781" r="0.996808" fill="#DFE5EC"/>
<circle cx="0.996808" cy="0.996808" r="0.996808" transform="matrix(1 0 0 -1 106.658 16.4473)" fill="#DFE5EC"/>
<circle cx="50.8372" cy="13.9553" r="0.996808" transform="rotate(180 50.8372 13.9553)" fill="#DFE5EC"/>
<circle cx="105.163" cy="71.2717" r="0.996808" fill="#DFE5EC"/>
<circle cx="21.93" cy="0.996808" r="0.996808" transform="rotate(90 21.93 0.996808)" fill="#DFE5EC"/>
<circle cx="134.07" cy="85.2273" r="0.996808" transform="rotate(-90 134.07 85.2273)" fill="#DFE5EC"/>
<circle cx="47.3479" cy="54.8245" r="0.996808" transform="rotate(180 47.3479 54.8245)" fill="#DFE5EC"/>
<circle cx="108.652" cy="30.4026" r="0.996808" fill="#DFE5EC"/>
<circle cx="108.652" cy="39.3738" r="0.996808" fill="#DFE5EC"/>
<circle cx="68.779" cy="13.9553" r="0.996808" transform="rotate(-90 68.779 13.9553)" fill="#DFE5EC"/>
<circle cx="87.221" cy="71.2717" r="0.996808" transform="rotate(90 87.221 71.2717)" fill="#DFE5EC"/>
<circle cx="6.9778" cy="12.9587" r="0.996808" transform="rotate(90 6.9778 12.9587)" fill="#DFE5EC"/>
<circle cx="9.96804" cy="0.996808" r="0.996808" transform="rotate(90 9.96804 0.996808)" fill="#DFE5EC"/>
<circle cx="146.032" cy="85.2273" r="0.996808" transform="rotate(-90 146.032 85.2273)" fill="#DFE5EC"/>
<circle cx="47.3479" cy="33.8914" r="0.996808" transform="rotate(180 47.3479 33.8914)" fill="#DFE5EC"/>
<circle cx="47.3479" cy="39.8723" r="0.996808" transform="rotate(180 47.3479 39.8723)" fill="#DFE5EC"/>
<circle cx="47.3479" cy="45.8533" r="0.996808" transform="rotate(180 47.3479 45.8533)" fill="#DFE5EC"/>
<circle cx="108.652" cy="51.3357" r="0.996808" fill="#DFE5EC"/>
<circle cx="89.7126" cy="13.9553" r="0.996808" transform="rotate(-90 89.7126 13.9553)" fill="#DFE5EC"/>
<circle cx="66.2874" cy="71.2717" r="0.996808" transform="rotate(90 66.2874 71.2717)" fill="#DFE5EC"/>
<circle cx="47.3479" cy="18.9392" r="0.996808" transform="rotate(180 47.3479 18.9392)" fill="#DFE5EC"/>
<circle cx="50.3382" cy="18.9392" r="0.996808" transform="rotate(180 50.3382 18.9392)" fill="#DFE5EC"/>
<circle cx="52.3323" cy="16.4475" r="0.996808" transform="rotate(180 52.3323 16.4475)" fill="#DFE5EC"/>
<circle cx="50.3382" cy="43.3611" r="0.996808" transform="rotate(180 50.3382 43.3611)" fill="#DFE5EC"/>
<circle cx="50.3382" cy="30.9011" r="0.996808" transform="rotate(180 50.3382 30.9011)" fill="#DFE5EC"/>
<circle cx="50.3382" cy="55.323" r="0.996808" transform="rotate(180 50.3382 55.323)" fill="#DFE5EC"/>
<circle cx="50.3382" cy="24.9202" r="0.996808" transform="rotate(180 50.3382 24.9202)" fill="#DFE5EC"/>
<circle cx="50.3382" cy="49.3421" r="0.996808" transform="rotate(180 50.3382 49.3421)" fill="#DFE5EC"/>
<circle cx="50.3382" cy="36.8821" r="0.996808" transform="rotate(180 50.3382 36.8821)" fill="#DFE5EC"/>
<circle cx="50.3382" cy="61.3035" r="0.996808" transform="rotate(180 50.3382 61.3035)" fill="#DFE5EC"/>
<circle cx="50.3382" cy="21.93" r="0.996808" transform="rotate(180 50.3382 21.93)" fill="#DFE5EC"/>
<circle cx="50.3382" cy="46.3518" r="0.996808" transform="rotate(180 50.3382 46.3518)" fill="#DFE5EC"/>
<circle cx="50.3382" cy="33.8914" r="0.996808" transform="rotate(180 50.3382 33.8914)" fill="#DFE5EC"/>
<circle cx="50.3382" cy="58.3133" r="0.996808" transform="rotate(180 50.3382 58.3133)" fill="#DFE5EC"/>
<circle cx="50.3382" cy="27.9104" r="0.996808" transform="rotate(180 50.3382 27.9104)" fill="#DFE5EC"/>
<circle cx="50.3382" cy="52.3323" r="0.996808" transform="rotate(180 50.3382 52.3323)" fill="#DFE5EC"/>
<circle cx="50.3382" cy="39.8723" r="0.996808" transform="rotate(180 50.3382 39.8723)" fill="#DFE5EC"/>
<circle cx="50.3382" cy="64.7923" r="0.996808" transform="rotate(180 50.3382 64.7923)" fill="#DFE5EC"/>
<circle cx="51.3352" cy="67.783" r="0.996808" transform="rotate(180 51.3352 67.783)" fill="#DFE5EC"/>
<circle cx="0.996808" cy="0.996808" r="0.996808" transform="matrix(-1 0 0 1 48.3447 65.7891)" fill="#DFE5EC"/>
<circle cx="108.652" cy="66.2878" r="0.996808" fill="#DFE5EC"/>
<circle cx="0.996808" cy="0.996808" r="0.996808" transform="matrix(1 0 0 -1 107.655 19.4375)" fill="#DFE5EC"/>
<circle cx="104.665" cy="13.9553" r="0.996808" transform="rotate(-90 104.665 13.9553)" fill="#DFE5EC"/>
<circle cx="51.3352" cy="71.2717" r="0.996808" transform="rotate(90 51.3352 71.2717)" fill="#DFE5EC"/>
<circle cx="24.9202" cy="0.996808" r="0.996808" transform="rotate(90 24.9202 0.996808)" fill="#DFE5EC"/>
<circle cx="131.08" cy="85.2273" r="0.996808" transform="rotate(-90 131.08 85.2273)" fill="#DFE5EC"/>
<circle cx="47.3479" cy="57.8147" r="0.996808" transform="rotate(180 47.3479 57.8147)" fill="#DFE5EC"/>
<circle cx="108.652" cy="27.4123" r="0.996808" fill="#DFE5EC"/>
<circle cx="65.7888" cy="13.9553" r="0.996808" transform="rotate(-90 65.7888 13.9553)" fill="#DFE5EC"/>
<circle cx="90.2112" cy="71.2717" r="0.996808" transform="rotate(90 90.2112 71.2717)" fill="#DFE5EC"/>
<circle cx="9.96804" cy="12.9587" r="0.996808" transform="rotate(90 9.96804 12.9587)" fill="#DFE5EC"/>
<circle cx="12.9583" cy="0.996808" r="0.996808" transform="rotate(90 12.9583 0.996808)" fill="#DFE5EC"/>
<circle cx="143.042" cy="85.2273" r="0.996808" transform="rotate(-90 143.042 85.2273)" fill="#DFE5EC"/>
<circle cx="47.3479" cy="36.8821" r="0.996808" transform="rotate(180 47.3479 36.8821)" fill="#DFE5EC"/>
<circle cx="47.3479" cy="42.8626" r="0.996808" transform="rotate(180 47.3479 42.8626)" fill="#DFE5EC"/>
<circle cx="108.652" cy="48.3454" r="0.996808" fill="#DFE5EC"/>
<circle cx="86.7224" cy="13.9553" r="0.996808" transform="rotate(-90 86.7224 13.9553)" fill="#DFE5EC"/>
<circle cx="69.2776" cy="71.2717" r="0.996808" transform="rotate(90 69.2776 71.2717)" fill="#DFE5EC"/>
<circle cx="78.2493" cy="71.2717" r="0.996808" transform="rotate(90 78.2493 71.2717)" fill="#DFE5EC"/>
<circle cx="47.3479" cy="21.93" r="0.996808" transform="rotate(180 47.3479 21.93)" fill="#DFE5EC"/>
<circle cx="108.652" cy="63.2971" r="0.996808" fill="#DFE5EC"/>
<circle cx="101.675" cy="13.9553" r="0.996808" transform="rotate(-90 101.675 13.9553)" fill="#DFE5EC"/>
<circle cx="54.3255" cy="71.2717" r="0.996808" transform="rotate(90 54.3255 71.2717)" fill="#DFE5EC"/>
<circle cx="27.9104" cy="0.996808" r="0.996808" transform="rotate(90 27.9104 0.996808)" fill="#DFE5EC"/>
<circle cx="128.09" cy="85.2273" r="0.996808" transform="rotate(-90 128.09 85.2273)" fill="#DFE5EC"/>
<circle cx="47.3479" cy="60.8054" r="0.996808" transform="rotate(180 47.3479 60.8054)" fill="#DFE5EC"/>
<circle cx="108.652" cy="24.4216" r="0.996808" fill="#DFE5EC"/>
<circle cx="62.7986" cy="13.9553" r="0.996808" transform="rotate(-90 62.7986 13.9553)" fill="#DFE5EC"/>
<circle cx="93.2014" cy="71.2717" r="0.996808" transform="rotate(90 93.2014 71.2717)" fill="#DFE5EC"/>
<circle cx="128.09" cy="73.2654" r="0.996808" transform="rotate(-90 128.09 73.2654)" fill="#DFE5EC"/>
<circle cx="15.9485" cy="0.996808" r="0.996808" transform="rotate(90 15.9485 0.996808)" fill="#DFE5EC"/>
<circle cx="140.051" cy="85.2273" r="0.996808" transform="rotate(-90 140.051 85.2273)" fill="#DFE5EC"/>
<circle cx="47.3479" cy="48.8435" r="0.996808" transform="rotate(180 47.3479 48.8435)" fill="#DFE5EC"/>
<circle cx="108.652" cy="36.3835" r="0.996808" fill="#DFE5EC"/>
<circle cx="108.652" cy="45.3547" r="0.996808" fill="#DFE5EC"/>
<circle cx="74.7605" cy="13.9553" r="0.996808" transform="rotate(-90 74.7605 13.9553)" fill="#DFE5EC"/>
<circle cx="80.741" cy="13.9553" r="0.996808" transform="rotate(-90 80.741 13.9553)" fill="#DFE5EC"/>
<circle cx="83.7312" cy="13.9553" r="0.996808" transform="rotate(-90 83.7312 13.9553)" fill="#DFE5EC"/>
<circle cx="72.2688" cy="71.2717" r="0.996808" transform="rotate(90 72.2688 71.2717)" fill="#DFE5EC"/>
<circle cx="81.2395" cy="71.2717" r="0.996808" transform="rotate(90 81.2395 71.2717)" fill="#DFE5EC"/>
<circle cx="30.9007" cy="0.996808" r="0.996808" transform="rotate(90 30.9007 0.996808)" fill="#DFE5EC"/>
<circle cx="125.099" cy="85.2273" r="0.996808" transform="rotate(-90 125.099 85.2273)" fill="#DFE5EC"/>
<circle cx="47.3479" cy="63.7957" r="0.996808" transform="rotate(180 47.3479 63.7957)" fill="#DFE5EC"/>
<circle cx="108.652" cy="21.4314" r="0.996808" fill="#DFE5EC"/>
<circle cx="59.8083" cy="13.9553" r="0.996808" transform="rotate(-90 59.8083 13.9553)" fill="#DFE5EC"/>
<circle cx="96.1917" cy="71.2717" r="0.996808" transform="rotate(90 96.1917 71.2717)" fill="#DFE5EC"/>
<circle cx="125.099" cy="73.2654" r="0.996808" transform="rotate(-90 125.099 73.2654)" fill="#DFE5EC"/>
<circle cx="18.9387" cy="0.996808" r="0.996808" transform="rotate(90 18.9387 0.996808)" fill="#DFE5EC"/>
<circle cx="137.061" cy="85.2273" r="0.996808" transform="rotate(-90 137.061 85.2273)" fill="#DFE5EC"/>
<circle cx="47.3479" cy="51.8342" r="0.996808" transform="rotate(180 47.3479 51.8342)" fill="#DFE5EC"/>
<circle cx="108.652" cy="33.3928" r="0.996808" fill="#DFE5EC"/>
<circle cx="108.652" cy="42.3645" r="0.996808" fill="#DFE5EC"/>
<circle cx="71.7702" cy="13.9553" r="0.996808" transform="rotate(-90 71.7702 13.9553)" fill="#DFE5EC"/>
<circle cx="77.7507" cy="13.9553" r="0.996808" transform="rotate(-90 77.7507 13.9553)" fill="#DFE5EC"/>
<circle cx="75.259" cy="71.2717" r="0.996808" transform="rotate(90 75.259 71.2717)" fill="#DFE5EC"/>
<circle cx="84.2298" cy="71.2717" r="0.996808" transform="rotate(90 84.2298 71.2717)" fill="#DFE5EC"/>
<circle cx="18.9387" cy="21.9299" r="0.996808" transform="rotate(90 18.9387 21.9299)" fill="#DFE5EC"/>
<circle cx="137.061" cy="64.2942" r="0.996808" transform="rotate(-90 137.061 64.2942)" fill="#DFE5EC"/>
<circle cx="41.3675" cy="43.3611" r="0.996808" transform="rotate(180 41.3675 43.3611)" fill="#DFE5EC"/>
<circle cx="114.633" cy="42.863" r="0.996808" fill="#DFE5EC"/>
<circle cx="33.8919" cy="0.996808" r="0.996808" transform="rotate(90 33.8919 0.996808)" fill="#DFE5EC"/>
<circle cx="122.108" cy="85.2273" r="0.996808" transform="rotate(-90 122.108 85.2273)" fill="#DFE5EC"/>
<circle cx="108.652" cy="18.4411" r="0.996808" fill="#DFE5EC"/>
<circle cx="56.8181" cy="13.9553" r="0.996808" transform="rotate(-90 56.8181 13.9553)" fill="#DFE5EC"/>
<circle cx="99.1819" cy="71.2717" r="0.996808" transform="rotate(90 99.1819 71.2717)" fill="#DFE5EC"/>
<circle cx="53.8269" cy="13.9553" r="0.996808" transform="rotate(-90 53.8269 13.9553)" fill="#DFE5EC"/>
<circle cx="102.173" cy="71.2717" r="0.996808" transform="rotate(90 102.173 71.2717)" fill="#DFE5EC"/>
<circle cx="18.9387" cy="33.8913" r="0.996808" transform="rotate(90 18.9387 33.8913)" fill="#DFE5EC"/>
<circle cx="137.061" cy="52.3323" r="0.996808" transform="rotate(-90 137.061 52.3323)" fill="#DFE5EC"/>
<circle cx="29.4055" cy="43.3611" r="0.996808" transform="rotate(180 29.4055 43.3611)" fill="#DFE5EC"/>
<circle cx="126.594" cy="42.863" r="0.996808" fill="#DFE5EC"/>
<circle cx="122.108" cy="73.2654" r="0.996808" transform="rotate(-90 122.108 73.2654)" fill="#DFE5EC"/>
<circle cx="36.8811" cy="12.9587" r="0.996808" transform="rotate(90 36.8811 12.9587)" fill="#DFE5EC"/>
<circle cx="119.118" cy="73.2654" r="0.996808" transform="rotate(-90 119.118 73.2654)" fill="#DFE5EC"/>
<circle cx="0.996356" cy="3.98704" r="0.996808" transform="rotate(90 0.996356 3.98704)" fill="#DFE5EC"/>
<circle cx="155.004" cy="82.2366" r="0.996808" transform="rotate(-90 155.004 82.2366)" fill="#DFE5EC"/>
<circle cx="0.996356" cy="15.949" r="0.996808" transform="rotate(90 0.996356 15.949)" fill="#DFE5EC"/>
<circle cx="155.004" cy="70.2752" r="0.996808" transform="rotate(-90 155.004 70.2752)" fill="#DFE5EC"/>
<circle cx="3.98659" cy="3.98704" r="0.996808" transform="rotate(90 3.98659 3.98704)" fill="#DFE5EC"/>
<circle cx="3.98659" cy="15.949" r="0.996808" transform="rotate(90 3.98659 15.949)" fill="#DFE5EC"/>
<circle cx="6.9778" cy="3.98704" r="0.996808" transform="rotate(90 6.9778 3.98704)" fill="#DFE5EC"/>
<circle cx="6.9778" cy="15.949" r="0.996808" transform="rotate(90 6.9778 15.949)" fill="#DFE5EC"/>
<circle cx="9.96804" cy="3.98704" r="0.996808" transform="rotate(90 9.96804 3.98704)" fill="#DFE5EC"/>
<circle cx="9.96804" cy="15.949" r="0.996808" transform="rotate(90 9.96804 15.949)" fill="#DFE5EC"/>
<circle cx="128.09" cy="82.2366" r="0.996808" transform="rotate(-90 128.09 82.2366)" fill="#DFE5EC"/>
<circle cx="128.09" cy="70.2752" r="0.996808" transform="rotate(-90 128.09 70.2752)" fill="#DFE5EC"/>
<circle cx="125.099" cy="82.2366" r="0.996808" transform="rotate(-90 125.099 82.2366)" fill="#DFE5EC"/>
<circle cx="125.099" cy="70.2752" r="0.996808" transform="rotate(-90 125.099 70.2752)" fill="#DFE5EC"/>
<circle cx="18.9387" cy="24.9201" r="0.996808" transform="rotate(90 18.9387 24.9201)" fill="#DFE5EC"/>
<circle cx="137.061" cy="61.3035" r="0.996808" transform="rotate(-90 137.061 61.3035)" fill="#DFE5EC"/>
<circle cx="38.3772" cy="43.3611" r="0.996808" transform="rotate(180 38.3772 43.3611)" fill="#DFE5EC"/>
<circle cx="117.623" cy="42.863" r="0.996808" fill="#DFE5EC"/>
<circle cx="44.3577" cy="43.3611" r="0.996808" transform="rotate(180 44.3577 43.3611)" fill="#DFE5EC"/>
<circle cx="111.642" cy="42.863" r="0.996808" fill="#DFE5EC"/>
<circle cx="122.108" cy="82.2366" r="0.996808" transform="rotate(-90 122.108 82.2366)" fill="#DFE5EC"/>
<circle cx="36.8811" cy="3.98704" r="0.996808" transform="rotate(90 36.8811 3.98704)" fill="#DFE5EC"/>
<circle cx="119.118" cy="82.2366" r="0.996808" transform="rotate(-90 119.118 82.2366)" fill="#DFE5EC"/>
<circle cx="18.9387" cy="36.8821" r="0.996808" transform="rotate(90 18.9387 36.8821)" fill="#DFE5EC"/>
<circle cx="137.061" cy="49.3421" r="0.996808" transform="rotate(-90 137.061 49.3421)" fill="#DFE5EC"/>
<circle cx="26.4153" cy="43.3611" r="0.996808" transform="rotate(180 26.4153 43.3611)" fill="#DFE5EC"/>
<circle cx="129.585" cy="42.863" r="0.996808" fill="#DFE5EC"/>
<circle cx="122.108" cy="70.2752" r="0.996808" transform="rotate(-90 122.108 70.2752)" fill="#DFE5EC"/>
<circle cx="36.8811" cy="15.949" r="0.996808" transform="rotate(90 36.8811 15.949)" fill="#DFE5EC"/>
<circle cx="119.118" cy="70.2752" r="0.996808" transform="rotate(-90 119.118 70.2752)" fill="#DFE5EC"/>
<circle cx="0.996356" cy="6.97777" r="0.996808" transform="rotate(90 0.996356 6.97777)" fill="#DFE5EC"/>
<circle cx="155.004" cy="79.2464" r="0.996808" transform="rotate(-90 155.004 79.2464)" fill="#DFE5EC"/>
<circle cx="3.98659" cy="6.97777" r="0.996808" transform="rotate(90 3.98659 6.97777)" fill="#DFE5EC"/>
<circle cx="3.98659" cy="18.9392" r="0.996808" transform="rotate(90 3.98659 18.9392)" fill="#DFE5EC"/>
<circle cx="152.013" cy="67.2844" r="0.996808" transform="rotate(-90 152.013 67.2844)" fill="#DFE5EC"/>
<circle cx="6.9778" cy="6.97777" r="0.996808" transform="rotate(90 6.9778 6.97777)" fill="#DFE5EC"/>
<circle cx="6.9778" cy="18.9392" r="0.996808" transform="rotate(90 6.9778 18.9392)" fill="#DFE5EC"/>
<circle cx="149.022" cy="67.2844" r="0.996808" transform="rotate(-90 149.022 67.2844)" fill="#DFE5EC"/>
<circle cx="21.93" cy="18.9392" r="0.996808" transform="rotate(90 21.93 18.9392)" fill="#DFE5EC"/>
<circle cx="134.07" cy="67.2844" r="0.996808" transform="rotate(-90 134.07 67.2844)" fill="#DFE5EC"/>
<circle cx="9.96804" cy="6.97777" r="0.996808" transform="rotate(90 9.96804 6.97777)" fill="#DFE5EC"/>
<circle cx="9.96804" cy="18.9392" r="0.996808" transform="rotate(90 9.96804 18.9392)" fill="#DFE5EC"/>
<circle cx="146.032" cy="67.2844" r="0.996808" transform="rotate(-90 146.032 67.2844)" fill="#DFE5EC"/>
<circle cx="24.9202" cy="18.9392" r="0.996808" transform="rotate(90 24.9202 18.9392)" fill="#DFE5EC"/>
<circle cx="131.08" cy="67.2844" r="0.996808" transform="rotate(-90 131.08 67.2844)" fill="#DFE5EC"/>
<circle cx="128.09" cy="79.2464" r="0.996808" transform="rotate(-90 128.09 79.2464)" fill="#DFE5EC"/>
<circle cx="12.9583" cy="18.9392" r="0.996808" transform="rotate(90 12.9583 18.9392)" fill="#DFE5EC"/>
<circle cx="143.042" cy="67.2844" r="0.996808" transform="rotate(-90 143.042 67.2844)" fill="#DFE5EC"/>
<circle cx="27.9104" cy="18.9392" r="0.996808" transform="rotate(90 27.9104 18.9392)" fill="#DFE5EC"/>
<circle cx="128.09" cy="67.2844" r="0.996808" transform="rotate(-90 128.09 67.2844)" fill="#DFE5EC"/>
<circle cx="125.099" cy="79.2464" r="0.996808" transform="rotate(-90 125.099 79.2464)" fill="#DFE5EC"/>
<circle cx="15.9485" cy="18.9392" r="0.996808" transform="rotate(90 15.9485 18.9392)" fill="#DFE5EC"/>
<circle cx="140.051" cy="67.2844" r="0.996808" transform="rotate(-90 140.051 67.2844)" fill="#DFE5EC"/>
<circle cx="30.9007" cy="18.9392" r="0.996808" transform="rotate(90 30.9007 18.9392)" fill="#DFE5EC"/>
<circle cx="125.099" cy="67.2844" r="0.996808" transform="rotate(-90 125.099 67.2844)" fill="#DFE5EC"/>
<circle cx="18.9387" cy="27.9104" r="0.996808" transform="rotate(90 18.9387 27.9104)" fill="#DFE5EC"/>
<circle cx="137.061" cy="58.3133" r="0.996808" transform="rotate(-90 137.061 58.3133)" fill="#DFE5EC"/>
<circle cx="35.386" cy="43.3611" r="0.996808" transform="rotate(180 35.386 43.3611)" fill="#DFE5EC"/>
<circle cx="120.614" cy="42.863" r="0.996808" fill="#DFE5EC"/>
<circle cx="122.108" cy="79.2464" r="0.996808" transform="rotate(-90 122.108 79.2464)" fill="#DFE5EC"/>
<circle cx="36.8811" cy="6.97777" r="0.996808" transform="rotate(90 36.8811 6.97777)" fill="#DFE5EC"/>
<circle cx="119.118" cy="79.2464" r="0.996808" transform="rotate(-90 119.118 79.2464)" fill="#DFE5EC"/>
<circle cx="18.9387" cy="18.9392" r="0.996808" transform="rotate(90 18.9387 18.9392)" fill="#DFE5EC"/>
<circle cx="137.061" cy="67.2844" r="0.996808" transform="rotate(-90 137.061 67.2844)" fill="#DFE5EC"/>
<circle cx="18.9387" cy="39.8723" r="0.996808" transform="rotate(90 18.9387 39.8723)" fill="#DFE5EC"/>
<circle cx="137.061" cy="46.3518" r="0.996808" transform="rotate(-90 137.061 46.3518)" fill="#DFE5EC"/>
<circle cx="23.4251" cy="43.3611" r="0.996808" transform="rotate(180 23.4251 43.3611)" fill="#DFE5EC"/>
<circle cx="132.575" cy="42.863" r="0.996808" fill="#DFE5EC"/>
<circle cx="20.4339" cy="42.3645" r="0.996808" transform="rotate(90 20.4339 42.3645)" fill="#DFE5EC"/>
<circle cx="135.566" cy="43.8596" r="0.996808" transform="rotate(-90 135.566 43.8596)" fill="#DFE5EC"/>
<circle cx="33.8919" cy="18.9392" r="0.996808" transform="rotate(90 33.8919 18.9392)" fill="#DFE5EC"/>
<circle cx="122.108" cy="67.2844" r="0.996808" transform="rotate(-90 122.108 67.2844)" fill="#DFE5EC"/>
<circle cx="0.996356" cy="9.968" r="0.996808" transform="rotate(90 0.996356 9.968)" fill="#DFE5EC"/>
<circle cx="155.004" cy="76.2556" r="0.996808" transform="rotate(-90 155.004 76.2556)" fill="#DFE5EC"/>
<circle cx="3.98659" cy="9.968" r="0.996808" transform="rotate(90 3.98659 9.968)" fill="#DFE5EC"/>
<circle cx="6.9778" cy="9.968" r="0.996808" transform="rotate(90 6.9778 9.968)" fill="#DFE5EC"/>
<circle cx="9.96804" cy="9.968" r="0.996808" transform="rotate(90 9.96804 9.968)" fill="#DFE5EC"/>
<circle cx="128.09" cy="76.2556" r="0.996808" transform="rotate(-90 128.09 76.2556)" fill="#DFE5EC"/>
<circle cx="125.099" cy="76.2556" r="0.996808" transform="rotate(-90 125.099 76.2556)" fill="#DFE5EC"/>
<circle cx="18.9387" cy="30.9011" r="0.996808" transform="rotate(90 18.9387 30.9011)" fill="#DFE5EC"/>
<circle cx="137.061" cy="55.323" r="0.996808" transform="rotate(-90 137.061 55.323)" fill="#DFE5EC"/>
<circle cx="32.3958" cy="43.3611" r="0.996808" transform="rotate(180 32.3958 43.3611)" fill="#DFE5EC"/>
<circle cx="123.604" cy="42.863" r="0.996808" fill="#DFE5EC"/>
<circle cx="122.108" cy="76.2556" r="0.996808" transform="rotate(-90 122.108 76.2556)" fill="#DFE5EC"/>
<circle cx="36.8811" cy="9.968" r="0.996808" transform="rotate(90 36.8811 9.968)" fill="#DFE5EC"/>
<circle cx="119.118" cy="76.2556" r="0.996808" transform="rotate(-90 119.118 76.2556)" fill="#DFE5EC"/>
<circle cx="84.152" cy="49.8175" r="0.918343" transform="rotate(180 84.152 49.8175)" fill="#DFE5EC"/>
<circle cx="84.152" cy="46.984" r="0.918343" transform="rotate(180 84.152 46.984)" fill="#DFE5EC"/>
<circle cx="84.152" cy="44.1505" r="0.918343" transform="rotate(180 84.152 44.1505)" fill="#DFE5EC"/>
<circle cx="81.1617" cy="49.8175" r="0.918343" transform="rotate(180 81.1617 49.8175)" fill="#DFE5EC"/>
<circle cx="81.1617" cy="46.984" r="0.918343" transform="rotate(180 81.1617 46.984)" fill="#DFE5EC"/>
<circle cx="81.1617" cy="44.1505" r="0.918343" transform="rotate(180 81.1617 44.1505)" fill="#DFE5EC"/>
<circle cx="80.6637" cy="38.7975" r="0.918343" transform="rotate(180 80.6637 38.7975)" fill="#DFE5EC"/>
<circle cx="77.6725" cy="38.7975" r="0.918343" transform="rotate(180 77.6725 38.7975)" fill="#DFE5EC"/>
<circle cx="81.1617" cy="35.8072" r="0.918343" transform="rotate(180 81.1617 35.8072)" fill="#DFE5EC"/>
<circle cx="78.1715" cy="34.8102" r="0.918343" transform="rotate(180 78.1715 34.8102)" fill="#DFE5EC"/>
<circle cx="81.6608" cy="31.8199" r="0.918343" transform="rotate(180 81.6608 31.8199)" fill="#DFE5EC"/>
<circle cx="86.1461" cy="30.8229" r="0.918343" transform="rotate(180 86.1461 30.8229)" fill="#DFE5EC"/>
<circle cx="90.1334" cy="31.3214" r="0.918343" transform="rotate(180 90.1334 31.3214)" fill="#DFE5EC"/>
<circle cx="93.1236" cy="34.8102" r="0.918343" transform="rotate(180 93.1236 34.8102)" fill="#DFE5EC"/>
<circle cx="93.6217" cy="39.296" r="0.918343" transform="rotate(180 93.6217 39.296)" fill="#DFE5EC"/>
<circle cx="92.6246" cy="43.2833" r="0.918343" transform="rotate(180 92.6246 43.2833)" fill="#DFE5EC"/>
<circle cx="90.1334" cy="46.2736" r="0.918343" transform="rotate(180 90.1334 46.2736)" fill="#DFE5EC"/>
<circle cx="87.1422" cy="46.7721" r="0.918343" transform="rotate(180 87.1422 46.7721)" fill="#DFE5EC"/>
<circle cx="83.6539" cy="33.3151" r="0.918343" transform="rotate(180 83.6539 33.3151)" fill="#DFE5EC"/>
<circle cx="86.6442" cy="33.3151" r="0.918343" transform="rotate(180 86.6442 33.3151)" fill="#DFE5EC"/>
<circle cx="89.6344" cy="34.3121" r="0.918343" transform="rotate(180 89.6344 34.3121)" fill="#DFE5EC"/>
<circle cx="91.1305" cy="37.3024" r="0.918343" transform="rotate(180 91.1305 37.3024)" fill="#DFE5EC"/>
<circle cx="91.1305" cy="40.2926" r="0.918343" transform="rotate(180 91.1305 40.2926)" fill="#DFE5EC"/>
<circle cx="87.143" cy="44.2799" r="0.918343" transform="rotate(-90 87.143 44.2799)" fill="#DFE5EC"/>
<circle cx="90.1332" cy="42.7848" r="0.918343" transform="rotate(-90 90.1332 42.7848)" fill="#DFE5EC"/>
<circle cx="84.152" cy="54.7462" r="0.918343" transform="rotate(180 84.152 54.7462)" fill="#DFE5EC"/>
<circle cx="84.152" cy="57.7369" r="0.918343" transform="rotate(180 84.152 57.7369)" fill="#DFE5EC"/>
<circle cx="81.1617" cy="54.7462" r="0.918343" transform="rotate(180 81.1617 54.7462)" fill="#DFE5EC"/>
<circle cx="81.1617" cy="57.7369" r="0.918343" transform="rotate(180 81.1617 57.7369)" fill="#DFE5EC"/>
<circle cx="68.2028" cy="49.817" r="0.918343" transform="rotate(180 68.2028 49.817)" fill="#DFE5EC"/>
<circle cx="68.2028" cy="46.9835" r="0.918343" transform="rotate(180 68.2028 46.9835)" fill="#DFE5EC"/>
<circle cx="68.2028" cy="44.15" r="0.918343" transform="rotate(180 68.2028 44.15)" fill="#DFE5EC"/>
<circle cx="68.2028" cy="41.3165" r="0.918343" transform="rotate(180 68.2028 41.3165)" fill="#DFE5EC"/>
<circle cx="68.2028" cy="38.483" r="0.918343" transform="rotate(180 68.2028 38.483)" fill="#DFE5EC"/>
<circle cx="68.2028" cy="35.6495" r="0.918343" transform="rotate(180 68.2028 35.6495)" fill="#DFE5EC"/>
<circle cx="68.2028" cy="32.816" r="0.918343" transform="rotate(180 68.2028 32.816)" fill="#DFE5EC"/>
<circle cx="68.2028" cy="29.9825" r="0.918343" transform="rotate(180 68.2028 29.9825)" fill="#DFE5EC"/>
<circle cx="68.2028" cy="54.7457" r="0.918343" transform="rotate(180 68.2028 54.7457)" fill="#DFE5EC"/>
<circle cx="68.2028" cy="57.7364" r="0.918343" transform="rotate(180 68.2028 57.7364)" fill="#DFE5EC"/>
<circle cx="71.193" cy="49.817" r="0.918343" transform="rotate(180 71.193 49.817)" fill="#DFE5EC"/>
<circle cx="71.193" cy="46.9835" r="0.918343" transform="rotate(180 71.193 46.9835)" fill="#DFE5EC"/>
<circle cx="71.193" cy="44.15" r="0.918343" transform="rotate(180 71.193 44.15)" fill="#DFE5EC"/>
<circle cx="71.193" cy="41.3165" r="0.918343" transform="rotate(180 71.193 41.3165)" fill="#DFE5EC"/>
<circle cx="71.193" cy="38.483" r="0.918343" transform="rotate(180 71.193 38.483)" fill="#DFE5EC"/>
<circle cx="71.193" cy="35.6495" r="0.918343" transform="rotate(180 71.193 35.6495)" fill="#DFE5EC"/>
<circle cx="71.193" cy="32.816" r="0.918343" transform="rotate(180 71.193 32.816)" fill="#DFE5EC"/>
<circle cx="71.193" cy="54.7462" r="0.918343" transform="rotate(180 71.193 54.7462)" fill="#DFE5EC"/>
<circle cx="71.193" cy="57.7364" r="0.918343" transform="rotate(180 71.193 57.7364)" fill="#DFE5EC"/>
<circle cx="71.194" cy="29.8263" r="0.918343" transform="rotate(180 71.194 29.8263)" fill="#DFE5EC"/>
</g>
<defs>
<clipPath id="clip0_1567_2768">
<rect width="156" height="86.2241" fill="white"/>
</clipPath>
</defs>
</svg>
