<svg width="22" height="22" viewBox="0 0 22 22" fill="none" xmlns="http://www.w3.org/2000/svg">
<rect x="0.5" y="0.5" width="21" height="21" rx="10.5" fill="white" stroke="#E6EBF5"/>
<path d="M7.38462 14.6154H10.3846C10.5808 14.6154 10.7452 14.6818 10.878 14.8145C11.0106 14.9473 11.0769 15.1118 11.0769 15.3079C11.0769 15.5042 11.0106 15.6686 10.878 15.8011C10.7452 15.9337 10.5808 16 10.3846 16H6.83446C6.598 16 6.39985 15.92 6.24 15.76C6.08 15.6002 6 15.402 6 15.1655V11.6154C6 11.4192 6.06638 11.2548 6.19915 11.122C6.33192 10.9894 6.49638 10.9231 6.69254 10.9231C6.88885 10.9231 7.05323 10.9894 7.18569 11.122C7.31831 11.2548 7.38462 11.4192 7.38462 11.6154V14.6154ZM14.6154 7.38462H11.6154C11.4192 7.38462 11.2548 7.31823 11.122 7.18546C10.9894 7.05269 10.9231 6.88823 10.9231 6.69208C10.9231 6.49577 10.9894 6.33138 11.122 6.19892C11.2548 6.06631 11.4192 6 11.6154 6H15.1655C15.402 6 15.6002 6.08 15.76 6.24C15.92 6.39985 16 6.598 16 6.83446V10.3846C16 10.5808 15.9336 10.7452 15.8008 10.878C15.6681 11.0106 15.5036 11.0769 15.3075 11.0769C15.1112 11.0769 14.9468 11.0106 14.8143 10.878C14.6817 10.7452 14.6154 10.5808 14.6154 10.3846V7.38462Z" fill="#1B1D1F"/>
</svg>
