<svg width="12" height="12" viewBox="0 0 12 12" fill="none" xmlns="http://www.w3.org/2000/svg">
<path d="M10.3945 9.79581L6.14449 6.79581C6.05803 6.73473 5.94246 6.73473 5.856 6.79581L1.60601 9.79581C1.53952 9.84266 1.49995 9.91895 1.5 10.0003V10.2503C1.49998 10.3884 1.61191 10.5003 1.74998 10.5003H10.25C10.3881 10.5003 10.5 10.3884 10.5 10.2503V10.0003C10.5001 9.91907 10.4608 9.84278 10.3945 9.79581Z" fill="#CFD8DC"/>
<path d="M6.14448 6.79503L1.8945 3.79503C1.78184 3.71523 1.62579 3.74188 1.54598 3.85454C1.51596 3.89692 1.49988 3.94759 1.5 3.99953V9.99953C1.49972 10.1376 1.61145 10.2497 1.74952 10.25C1.80145 10.2501 1.85212 10.234 1.8945 10.204L6.14448 7.20404C6.25729 7.12442 6.2842 6.96845 6.20458 6.85564C6.18813 6.83232 6.1678 6.812 6.14448 6.79555V6.79503Z" fill="#FAFAFA"/>
<path d="M10.3654 3.77772C10.2822 3.73525 10.1825 3.74197 10.1059 3.79522L5.85586 6.79523C5.74306 6.87484 5.71615 7.03082 5.79577 7.14363C5.81222 7.16695 5.83254 7.18727 5.85586 7.20372L10.1059 10.2037C10.2185 10.2835 10.3746 10.2569 10.4544 10.1442C10.4843 10.102 10.5004 10.0515 10.5004 9.99972V3.99972C10.5004 3.90629 10.4483 3.82068 10.3654 3.77772Z" fill="#EEEEEE"/>
<path d="M10.9875 1.67201C10.9538 1.56937 10.858 1.5 10.75 1.5H1.25001C1.11194 1.5 1 1.61194 1 1.75001C1 1.82869 1.03705 1.9028 1.10001 1.95L5.85001 5.44999C5.93818 5.51491 6.05835 5.51491 6.14652 5.44999L10.8965 1.95C10.9835 1.8866 11.0202 1.77459 10.9875 1.67201Z" fill="#ECEFF1"/>
<path d="M10.75 1.5C10.6959 1.5 10.6433 1.51755 10.6 1.54999L6 4.9395L1.39999 1.54999C1.35673 1.51755 1.30409 1.5 1.24999 1.5C0.559641 1.5 0 2.05964 0 2.74999V9.24998C0 9.94036 0.559641 10.5 1.24999 10.5H1.74998C1.88805 10.5 1.99999 10.3881 1.99999 10.25V4.48249L5.85548 7.2045C5.94195 7.26558 6.05752 7.26558 6.14398 7.2045L9.99998 4.48249V10.25C9.99998 10.3881 10.1119 10.5 10.25 10.5H10.75C11.4404 10.5 12 9.94036 12 9.25001V2.74999C12 2.05964 11.4404 1.5 10.75 1.5Z" fill="#F44336"/>
</svg>
