<svg width="36" height="36" viewBox="0 0 36 36" fill="none" xmlns="http://www.w3.org/2000/svg">
<path d="M12.1175 0.98858C7.7329 2.49042 3.99341 5.77634 1.91703 9.91901C1.19131 11.3503 0.667176 12.8723 0.354712 14.4447C-0.441568 18.3556 0.112804 22.5184 1.91703 26.0865C3.08626 28.4149 4.76953 30.4812 6.80559 32.0939C8.73077 33.626 10.9684 34.7549 13.3472 35.3899C16.3408 36.1963 19.536 36.1761 22.5598 35.4907C25.2914 34.8658 27.8717 33.5554 29.928 31.6605C32.1051 29.6547 33.6574 27.0239 34.4839 24.1916C35.381 21.0972 35.5019 17.8012 34.9375 14.6362C29.2929 14.6362 23.6484 14.6362 17.9938 14.6362C17.9938 16.9747 17.9938 19.3232 17.9938 21.6616C21.2596 21.6616 24.5354 21.6616 27.8012 21.6616C27.4182 23.9094 26.0877 25.9555 24.1927 27.2255C23.0033 28.0218 21.6426 28.5459 20.2315 28.7878C18.8103 29.0297 17.3487 29.06 15.9376 28.7778C14.4962 28.4955 13.1254 27.8908 11.926 27.0441C10.0109 25.7035 8.54934 23.7279 7.80346 21.5205C7.03742 19.2728 7.02734 16.763 7.80346 14.5153C8.33767 12.9328 9.23475 11.4612 10.414 10.2718C11.8655 8.78003 13.7504 7.72168 15.7864 7.28826C17.5302 6.91532 19.3646 6.98588 21.0681 7.49994C22.5195 7.94343 23.85 8.72963 24.9487 9.7779C26.0574 8.67924 27.1561 7.57049 28.2648 6.47183C28.8394 5.87714 29.4542 5.31268 30.0187 4.69783C28.3455 3.14559 26.3699 1.89574 24.223 1.10953C20.3726 -0.331834 16.0082 -0.362073 12.1175 0.98858Z" fill="white"/>
<path d="M12.1171 0.988461C16.0078 -0.362191 20.3722 -0.331952 24.2428 1.09934C26.3897 1.88554 28.3552 3.13539 30.0385 4.68764C29.474 5.29241 28.8692 5.86694 28.2846 6.46163C27.1759 7.56029 26.0772 8.66904 24.9685 9.7677C23.8698 8.71944 22.5393 7.92315 21.0879 7.48974C19.3844 6.97568 17.55 6.90513 15.8062 7.27807C13.7702 7.71149 11.8853 8.77991 10.4339 10.2616C9.25455 11.451 8.35748 12.9226 7.82326 14.5051C5.85776 12.9831 3.89226 11.451 1.92676 9.92897C3.99305 5.77622 7.73255 2.49031 12.1171 0.988461Z" fill="#E94435"/>
<path d="M0.354712 14.4446C0.667176 12.8722 1.20139 11.3502 1.91703 9.91888C3.88254 11.4409 5.84804 12.973 7.81354 14.495C7.03742 16.7427 7.0475 19.2525 7.81354 21.5002C5.84804 23.0222 3.88254 24.5543 1.91703 26.0763C0.112804 22.5283 -0.441568 18.3554 0.354712 14.4446Z" fill="#F8BB15"/>
<path d="M18.0036 14.626C23.6481 14.626 29.2926 14.626 34.9472 14.626C35.5117 17.791 35.3907 21.087 34.4936 24.1814C33.6671 27.0137 32.1149 29.6546 29.9377 31.6503C28.0327 30.1686 26.1176 28.6869 24.2226 27.2052C26.1176 25.9453 27.4481 23.8891 27.8311 21.6414C24.5653 21.6414 21.2895 21.6414 18.0237 21.6414C17.9935 19.313 18.0036 16.9746 18.0036 14.626Z" fill="#547DBE"/>
<path d="M1.91699 26.0864C3.88249 24.5644 5.848 23.0323 7.8135 21.5103C8.55938 23.7278 10.0209 25.6933 11.936 27.0339C13.1355 27.8806 14.5063 28.4752 15.9477 28.7676C17.3588 29.0498 18.8304 29.0195 20.2415 28.7776C21.6526 28.5357 23.0134 28.0116 24.2028 27.2153C26.1078 28.697 28.0229 30.1787 29.9178 31.6604C27.8616 33.5654 25.2813 34.8656 22.5497 35.4906C19.536 36.176 16.3408 36.1961 13.3371 35.3898C10.9583 34.7548 8.72065 33.6259 6.79547 32.0938C4.76949 30.471 3.08621 28.4047 1.91699 26.0864Z" fill="#34A751"/>
</svg>
