<svg width="14" height="14" viewBox="0 0 14 14" fill="none" xmlns="http://www.w3.org/2000/svg">
<path d="M1.75013 3.61667C1.75013 2.96327 1.75013 2.63657 1.87729 2.38701C1.98914 2.16749 2.16762 1.98901 2.38714 1.87716C2.63671 1.75 2.9634 1.75 3.6168 1.75H3.9668C4.62019 1.75 4.94689 1.75 5.19645 1.87716C5.41598 1.98901 5.59445 2.16749 5.70631 2.38701C5.83347 2.63657 5.83347 2.96327 5.83347 3.61667V3.96667C5.83347 4.62006 5.83347 4.94676 5.70631 5.19632C5.59445 5.41584 5.41598 5.59432 5.19645 5.70617C4.94689 5.83333 4.62019 5.83333 3.9668 5.83333H3.6168C2.9634 5.83333 2.63671 5.83333 2.38714 5.70617C2.16762 5.59432 1.98914 5.41584 1.87729 5.19632C1.75013 4.94676 1.75013 4.62006 1.75013 3.96667V3.61667Z" stroke="#788187" stroke-width="1.25" stroke-linecap="round" stroke-linejoin="round"/>
<path d="M2.22438 11.5283C1.76236 11.0662 1.53135 10.8352 1.4448 10.5689C1.36866 10.3345 1.36866 10.0821 1.4448 9.84781C1.53135 9.58143 1.76236 9.35042 2.22438 8.8884L2.47187 8.64091C2.93389 8.17889 3.1649 7.94788 3.43128 7.86133C3.6656 7.7852 3.918 7.7852 4.15232 7.86133C4.4187 7.94788 4.64971 8.17889 5.11173 8.64091L5.35922 8.8884C5.82124 9.35042 6.05225 9.58143 6.1388 9.84781C6.21494 10.0821 6.21494 10.3345 6.1388 10.5689C6.05225 10.8352 5.82124 11.0662 5.35922 11.5283L5.11173 11.7758C4.64971 12.2378 4.4187 12.4688 4.15232 12.5553C3.918 12.6315 3.6656 12.6315 3.43128 12.5553C3.1649 12.4688 2.93389 12.2378 2.47187 11.7758L2.22438 11.5283Z" stroke="#788187" stroke-width="1.25" stroke-linecap="round" stroke-linejoin="round"/>
<path d="M8.1668 3.79167C8.1668 2.66409 9.08088 1.75 10.2085 1.75C11.336 1.75 12.2501 2.66409 12.2501 3.79167C12.2501 4.91925 11.336 5.83333 10.2085 5.83333C9.08088 5.83333 8.1668 4.91925 8.1668 3.79167Z" stroke="#788187" stroke-width="1.25" stroke-linecap="round" stroke-linejoin="round"/>
<path d="M8.1668 10.0333C8.1668 9.37994 8.1668 9.05324 8.29396 8.80368C8.40581 8.58416 8.58429 8.40568 8.80381 8.29383C9.05337 8.16667 9.38007 8.16667 10.0335 8.16667H10.3835C11.0369 8.16667 11.3636 8.16667 11.6131 8.29383C11.8326 8.40568 12.0111 8.58416 12.123 8.80368C12.2501 9.05324 12.2501 9.37994 12.2501 10.0333V10.3833C12.2501 11.0367 12.2501 11.3634 12.123 11.613C12.0111 11.8325 11.8326 12.011 11.6131 12.1228C11.3636 12.25 11.0369 12.25 10.3835 12.25H10.0335C9.38007 12.25 9.05337 12.25 8.80381 12.1228C8.58429 12.011 8.40581 11.8325 8.29396 11.613C8.1668 11.3634 8.1668 11.0367 8.1668 10.3833V10.0333Z" stroke="#788187" stroke-width="1.25" stroke-linecap="round" stroke-linejoin="round"/>
</svg>
