<svg width="32" height="32" viewBox="0 0 32 32" fill="none" xmlns="http://www.w3.org/2000/svg">
<circle cx="16" cy="16" r="16" fill="#FFD6D6"/>
<path d="M18.3333 20.3894C18.4188 20.833 18.5299 21.1402 18.6667 21.3108C18.8034 21.4814 18.9829 21.5667 19.2051 21.5667C19.4273 21.5667 19.6496 21.4388 19.8718 21.1828C20.1111 20.9098 20.3761 20.3382 20.6667 19.468L21 18.521H21.4872L20.8462 20.3894C20.6068 21.1402 20.2735 21.7032 19.8462 22.0786C19.4188 22.454 18.9573 22.7014 18.4615 22.8208C17.9658 22.9403 17.4957 23 17.0513 23C16.1624 23 15.4103 22.8208 14.7949 22.4625C14.1966 22.0871 13.8462 21.3961 13.7436 20.3894L12.7179 11.6106C12.6496 11.167 12.5299 10.894 12.359 10.7916C12.2051 10.6722 12.0171 10.6124 11.7949 10.6124C11.6581 10.6124 11.5128 10.6551 11.359 10.7404C11.2222 10.8087 11.0769 10.9793 10.9231 11.2523C10.7692 11.5253 10.5897 11.9519 10.3846 12.532L10.0513 13.479H9.5641L10.2051 11.6106C10.4444 10.8598 10.7778 10.2968 11.2051 9.92139C11.6325 9.54601 12.1026 9.2986 12.6154 9.17916C13.1453 9.05972 13.6496 9 14.1282 9C15.0684 9 15.812 9.19622 16.359 9.58867C16.9231 9.98111 17.265 10.7745 17.3846 11.9689L18.3333 20.3894ZM18.9744 10.9707C18.6154 11.4485 18.2991 11.9775 18.0256 12.5576C17.7521 13.1377 17.5128 13.7179 17.3077 14.298C17.1197 14.8781 16.9573 15.4071 16.8205 15.8848C16.8205 15.8848 16.735 15.8848 16.5641 15.8848C16.3932 15.8678 16.3077 15.8592 16.3077 15.8592C16.3419 15.7227 16.4103 15.4668 16.5128 15.0914C16.6325 14.699 16.7863 14.2468 16.9744 13.7349C17.1795 13.206 17.4188 12.6685 17.6923 12.1225C17.9829 11.5594 18.2991 11.039 18.641 10.5612C19.1026 9.92992 19.5897 9.51188 20.1026 9.30713C20.6325 9.10238 21.1368 9 21.6154 9C22.3162 9 22.8889 9.18769 23.3333 9.56307C23.7778 9.93845 24 10.4759 24 11.1755C24 11.841 23.7863 12.387 23.359 12.8135C22.9316 13.2401 22.3761 13.4534 21.6923 13.4534C21.1624 13.4534 20.6325 13.2742 20.1026 12.9159C19.5897 12.5576 19.2137 11.9092 18.9744 10.9707ZM12.0256 21.0293C12.5726 20.2956 13.0171 19.4765 13.359 18.5722C13.7179 17.6508 13.9915 16.8318 14.1795 16.1152C14.1795 16.1152 14.265 16.1237 14.4359 16.1408C14.6068 16.1408 14.6923 16.1408 14.6923 16.1408C14.5726 16.6185 14.4017 17.1731 14.1795 17.8044C13.9573 18.4357 13.6923 19.0756 13.3846 19.7239C13.094 20.3553 12.7521 20.9269 12.359 21.4388C11.8803 22.053 11.3761 22.4625 10.8462 22.6673C10.3333 22.8891 9.83761 23 9.35897 23C8.62393 23 8.05128 22.8208 7.64103 22.4625C7.21368 22.0871 7 21.5838 7 20.9525C7 20.2017 7.23932 19.613 7.71795 19.1865C8.17949 18.7599 8.7265 18.5466 9.35897 18.5466C10.0427 18.5466 10.5983 18.777 11.0256 19.2377C11.4701 19.6813 11.8034 20.2785 12.0256 21.0293Z" fill="#FF4F4F"/>
</svg>
