<svg width="14" height="14" viewBox="0 0 14 14" fill="none" xmlns="http://www.w3.org/2000/svg">
<path d="M2.41421 2.45452C2.86787 2.80802 3.03814 2.78118 3.89071 2.72635L11.9269 2.26377C12.0972 2.26377 11.9555 2.10043 11.899 2.0736L10.5635 1.14785C10.3081 0.957687 9.96699 0.73952 9.31387 0.79377L1.53306 1.3386C1.24967 1.36544 1.19251 1.50194 1.30562 1.61044L2.41421 2.45452ZM2.89645 4.25118V12.3618C2.89645 12.7976 3.12327 12.9609 3.6347 12.9335L12.4663 12.4435C12.9778 12.4167 13.0349 12.1168 13.0349 11.7627V3.70635C13.0349 3.35285 12.8932 3.1621 12.5801 3.18893L3.35071 3.70635C3.01016 3.73376 2.89645 3.8971 2.89645 4.2506V4.25118ZM11.615 4.68576C11.6715 4.93076 11.615 5.17576 11.3596 5.20376L10.9339 5.28543V11.2727C10.5642 11.4635 10.2236 11.5726 9.93962 11.5726C9.48475 11.5726 9.37104 11.4361 9.03049 11.0283L6.24716 6.83651V10.8918L7.1277 11.0832C7.1277 11.0832 7.1277 11.5732 6.41743 11.5732L4.45808 11.6817C4.40153 11.5732 4.45808 11.3007 4.65694 11.2465L5.16775 11.1106V5.74801L4.4593 5.69318C4.40214 5.44818 4.54444 5.09468 4.94153 5.06726L7.04318 4.93134L9.94023 9.17742V5.42076L9.20137 5.33968C9.14482 5.03984 9.37164 4.82226 9.65563 4.79543L11.615 4.68576ZM0.879941 0.603604L8.97394 0.0319386C9.9676 -0.0497279 10.2236 0.00452196 10.8481 0.440271L13.432 2.1821C13.8577 2.48135 14 2.56302 14 2.88968V12.4435C14 13.042 13.7732 13.3967 12.9784 13.4503L3.57814 13.9952C2.98219 14.0226 2.69759 13.9409 2.38502 13.5594L0.482234 11.1911C0.141691 10.7553 0 10.4292 0 10.0478V1.5556C0 1.06619 0.227435 0.65727 0.879941 0.603604Z" fill="black"/>
</svg>
