<svg viewBox="0 0 16 16" xmlns="http://www.w3.org/2000/svg" fill="rgb(234,67,53)" style="width: 16px; height: 16px;"><path fill-rule="evenodd" clip-rule="evenodd" d="M1.778 0h12.444C15.2 0 16 .8 16 1.778v12.444C16 15.2 15.2 16 14.222 16H1.778C.8 16 0 15.2 0 14.222V1.778C0 .8.8 0 1.778 0zm2.666 7.556h-.888v-.89h.888v.89zm1.334 0c0 .737-.596 1.333-1.334 1.333h-.888v1.778H2.222V5.333h2.222c.738 0 1.334.596 1.334 1.334v.889zm6.666-.89h2.223V5.334H11.11v5.334h1.333V8.889h1.334V7.556h-1.334v-.89zm-2.222 2.667c0 .738-.595 1.334-1.333 1.334H6.667V5.333h2.222c.738 0 1.333.596 1.333 1.334v2.666zm-1.333 0H8V6.667h.889v2.666z"></path></svg>