<svg width="14" height="14" viewBox="0 0 14 14" fill="none" xmlns="http://www.w3.org/2000/svg">
<path fill-rule="evenodd" clip-rule="evenodd" d="M4.67048 1.63461C4.67745 1.63926 4.68444 1.64392 4.69146 1.6486L10.8449 5.7509C11.0229 5.86957 11.188 5.9796 11.3148 6.08185C11.4471 6.18856 11.6031 6.33653 11.6929 6.55301C11.8115 6.83914 11.8115 7.16071 11.6929 7.44684C11.6031 7.66332 11.4471 7.8113 11.3148 7.91801C11.188 8.02025 11.023 8.13028 10.8449 8.24895L4.67049 12.3652C4.45286 12.5103 4.25716 12.6408 4.09111 12.7308C3.92494 12.8209 3.69685 12.9238 3.43063 12.9079C3.09011 12.8876 2.77554 12.7192 2.56974 12.4471C2.40884 12.2345 2.36794 11.9876 2.3507 11.7994C2.33346 11.6113 2.33348 11.3761 2.3335 11.1145L2.3335 2.91054C2.3335 2.90211 2.3335 2.8937 2.3335 2.88532C2.33348 2.62375 2.33346 2.38855 2.3507 2.20047C2.36794 2.01226 2.40884 1.76539 2.56974 1.5527C2.77554 1.28065 3.09011 1.1123 3.43063 1.09197C3.69685 1.07607 3.92494 1.17898 4.09111 1.26903C4.25716 1.35902 4.45285 1.4895 4.67048 1.63461ZM3.51482 2.28394C3.51403 2.29101 3.51325 2.29866 3.5125 2.30692C3.50075 2.43511 3.50016 2.6157 3.50016 2.91054V11.0893C3.50016 11.3842 3.50075 11.5647 3.5125 11.6929C3.51325 11.7012 3.51403 11.7088 3.51482 11.7159C3.52114 11.7126 3.52794 11.709 3.53523 11.7051C3.6484 11.6438 3.79898 11.5441 4.04431 11.3805L10.1784 7.29114C10.3825 7.1551 10.5021 7.07466 10.5824 7.00987C10.5868 7.00636 10.5908 7.00305 10.5946 6.99993C10.5908 6.99681 10.5868 6.99349 10.5824 6.98998C10.5021 6.92519 10.3825 6.84475 10.1784 6.70871L4.04431 2.61932C3.79898 2.45577 3.6484 2.35609 3.53523 2.29476C3.52793 2.2908 3.52114 2.28721 3.51482 2.28394Z" fill="#788187"/>
</svg>
