<svg width="14" height="14" viewBox="0 0 14 14" fill="none" xmlns="http://www.w3.org/2000/svg">
<g clip-path="url(#clip0_263_43)">
<path d="M5.79658 9.04165C5.74451 8.83977 5.63928 8.65554 5.49186 8.50812C5.34444 8.3607 5.16021 8.25548 4.95833 8.2034L1.37958 7.28057C1.31853 7.26324 1.26479 7.22646 1.22652 7.17583C1.18826 7.12519 1.16756 7.06345 1.16756 6.99998C1.16756 6.93651 1.18826 6.87478 1.22652 6.82414C1.26479 6.7735 1.31853 6.73673 1.37958 6.7194L4.95833 5.79598C5.16014 5.74395 5.34432 5.63882 5.49174 5.49151C5.63915 5.34419 5.74441 5.16008 5.79658 4.95832L6.71942 1.37957C6.73657 1.31827 6.77331 1.26427 6.82402 1.2258C6.87473 1.18733 6.93664 1.1665 7.00029 1.1665C7.06395 1.1665 7.12585 1.18733 7.17656 1.2258C7.22728 1.26427 7.26401 1.31827 7.28117 1.37957L8.20342 4.95832C8.2555 5.16019 8.36072 5.34442 8.50814 5.49184C8.65556 5.63926 8.83979 5.74449 9.04167 5.79657L12.6204 6.71882C12.682 6.73579 12.7362 6.77249 12.7749 6.82328C12.8136 6.87407 12.8345 6.93614 12.8345 6.99998C12.8345 7.06382 12.8136 7.1259 12.7749 7.17669C12.7362 7.22748 12.682 7.26417 12.6204 7.28115L9.04167 8.2034C8.83979 8.25548 8.65556 8.3607 8.50814 8.50812C8.36072 8.65554 8.2555 8.83977 8.20342 9.04165L7.28058 12.6204C7.26343 12.6817 7.22669 12.7357 7.17598 12.7742C7.12527 12.8126 7.06336 12.8335 6.99971 12.8335C6.93606 12.8335 6.87415 12.8126 6.82344 12.7742C6.77273 12.7357 6.73599 12.6817 6.71883 12.6204L5.79658 9.04165Z" stroke-width="1.16667" stroke-linecap="round" stroke-linejoin="round"/>
</g>
<defs>
<clipPath id="clip0_263_43">
<rect width="14" height="14" fill="white"/>
</clipPath>
</defs>
</svg>
