<svg width="12" height="12" viewBox="0 0 12 12" fill="none" xmlns="http://www.w3.org/2000/svg">
<path d="M5.41891 9.50009H4.25C2.317 9.50009 0.75 7.93309 0.75 6.00009C0.75 4.0671 2.317 2.50009 4.25 2.50009L7.66249 2.5001M5.41891 9.50009C5.41891 9.42375 5.39341 9.34742 5.3424 9.28447C4.96526 8.81905 4.53198 8.4016 4.05219 8.04176M5.41891 9.50009C5.41891 9.57643 5.39341 9.65277 5.3424 9.71572C4.96526 10.1811 4.53198 10.5986 4.05219 10.9584M7.66249 2.5001C7.66249 3.51492 8.48516 4.3376 9.49999 4.3376C10.5148 4.3376 11.3375 3.51492 11.3375 2.5001C11.3375 1.48527 10.5148 0.662598 9.49999 0.662598C8.48516 0.662598 7.66249 1.48527 7.66249 2.5001ZM9.5 11.2501C8.9564 11.2501 8.6846 11.2501 8.4702 11.1613C8.18434 11.0429 7.95722 10.8158 7.83881 10.5299C7.75 10.3155 7.75 10.0437 7.75 9.50009C7.75 8.9565 7.75 8.6847 7.83881 8.4703C7.95722 8.18443 8.18434 7.95731 8.4702 7.8389C8.6846 7.75009 8.9564 7.75009 9.5 7.75009C10.0436 7.75009 10.3154 7.75009 10.5298 7.8389C10.8157 7.95731 11.0428 8.18443 11.1612 8.4703C11.25 8.6847 11.25 8.9565 11.25 9.50009C11.25 10.0437 11.25 10.3155 11.1612 10.5299C11.0428 10.8158 10.8157 11.0429 10.5298 11.1613C10.3154 11.2501 10.0436 11.2501 9.5 11.2501Z" stroke="#3B4145" stroke-width="1.25" stroke-linecap="round" stroke-linejoin="round"/>
</svg>
