<svg xmlns="http://www.w3.org/2000/svg" width="120" height="25" viewBox="0 0 120 25" fill="none">
  <path d="M18.4043 12.1846L29.3629 23.8859H21.8835L14.6562 16.2012L7.46258 23.8859H0L10.9418 12.1846L0.537845 1.08091H8.01723L14.6562 8.21784L21.3289 1.08091H28.8082L18.4043 12.1846Z" fill="#FF4F4F"/>
  <path d="M58.1367 15.1224C58.1367 16.6051 57.767 17.9274 57.0274 19.0892C56.2879 20.251 55.2346 21.2358 53.8676 22.0436C52.5118 22.8402 50.8646 23.4488 48.9262 23.8693C46.9989 24.2898 44.8363 24.5 42.4384 24.5C41.3852 24.5 40.2759 24.4557 39.1105 24.3672C37.9564 24.2898 36.8247 24.1736 35.7154 24.0187C34.6173 23.8748 33.5864 23.7089 32.6228 23.5207C31.6592 23.3216 30.8468 23.1058 30.1857 22.8734V17.4627C30.9028 17.7614 31.6984 18.0436 32.5724 18.3091C33.4576 18.5747 34.4156 18.8126 35.4465 19.0228C36.4773 19.222 37.581 19.3824 38.7576 19.5041C39.9453 19.6148 41.2003 19.6701 42.5225 19.6701C43.7662 19.6701 44.8587 19.5982 45.8 19.4544C46.7524 19.3105 47.576 19.1169 48.2707 18.8734C48.9654 18.63 49.5425 18.3534 50.0019 18.0436C50.4613 17.7227 50.831 17.3963 51.1112 17.0643C51.3913 16.7213 51.5874 16.3838 51.6994 16.0519C51.8227 15.7199 51.8843 15.4101 51.8843 15.1224V13.1141C50.7414 13.944 49.38 14.63 47.8001 15.1722C46.2201 15.7033 44.4217 15.9689 42.4048 15.9689C40.063 15.9689 38.1077 15.7476 36.539 15.305C34.9815 14.8513 33.7321 14.204 32.7909 13.3631C31.8496 12.5111 31.1773 11.4765 30.7739 10.2593C30.3818 9.04218 30.1857 7.67012 30.1857 6.14315V1.08091H36.4549V5.52905C36.4549 6.42531 36.5726 7.22199 36.8079 7.91909C37.0544 8.61618 37.4354 9.20263 37.9508 9.67842C38.4774 10.1432 39.1553 10.4972 39.9845 10.7407C40.8137 10.9841 41.8166 11.1058 42.9931 11.1058C43.9903 11.1058 44.9316 10.9841 45.8168 10.7407C46.7132 10.4972 47.5367 10.1763 48.2875 9.77801C49.0382 9.37967 49.7161 8.926 50.3212 8.41701C50.9263 7.90802 51.4473 7.38797 51.8843 6.85685V1.08091H58.1367V15.1224Z" fill="#FF4F4F"/>
  <path d="M82.7607 23.8859V11.1058C82.7607 10.2538 82.6878 9.48479 82.5421 8.79875C82.3965 8.10166 82.122 7.50968 81.7186 7.02282C81.3264 6.5249 80.7717 6.14315 80.0546 5.87759C79.3487 5.60097 78.4355 5.46266 77.315 5.46266C76.4634 5.46266 75.567 5.57884 74.6258 5.8112C73.6957 6.0325 72.7713 6.33126 71.8525 6.70747C70.9337 7.08368 70.0541 7.52075 69.2137 8.01867C68.3845 8.5166 67.645 9.03665 66.9951 9.57884V23.8859H60.7595V1.08091H66.9951V4.20124C67.7795 3.75864 68.6142 3.32158 69.4994 2.89004C70.3846 2.44744 71.3259 2.0491 72.3231 1.69502C73.3204 1.34094 74.3792 1.05325 75.4998 0.83195C76.6203 0.61065 77.8024 0.5 79.0462 0.5C80.6037 0.5 81.9931 0.688105 83.2144 1.06432C84.447 1.42946 85.4891 1.95505 86.3407 2.64108C87.1923 3.31604 87.8422 4.14039 88.2904 5.11411C88.7498 6.07676 88.9795 7.1556 88.9795 8.35062V23.8859H82.7607Z" fill="#FF4F4F"/>
  <path d="M118.101 22.7573C116.207 23.3769 114.313 23.8195 112.42 24.0851C110.537 24.3617 108.61 24.5 106.638 24.5C104.117 24.5 101.87 24.2344 99.8981 23.7033C97.9372 23.1611 96.2845 22.3811 94.9399 21.3631C93.5953 20.3451 92.57 19.1003 91.8641 17.6286C91.1581 16.157 90.8052 14.4917 90.8052 12.6328C90.8052 10.9066 91.1581 9.30774 91.8641 7.8361C92.5812 6.35339 93.5897 5.06985 94.8895 3.98548C96.2004 2.89004 97.7803 2.03804 99.6292 1.42946C101.478 0.80982 103.54 0.5 105.814 0.5C107.91 0.5 109.826 0.782158 111.563 1.34647C113.311 1.89972 114.806 2.72407 116.05 3.8195C117.305 4.91494 118.274 6.26487 118.958 7.86929C119.653 9.47372 120 11.3216 120 13.4129V14.9398H97.2425C97.4442 15.6591 97.7747 16.3174 98.2342 16.9149C98.7048 17.5124 99.3378 18.0214 100.133 18.4419C100.929 18.8624 101.904 19.1888 103.058 19.4212C104.223 19.6535 105.613 19.7697 107.226 19.7697C108.369 19.7697 109.49 19.7033 110.588 19.5705C111.686 19.4267 112.711 19.2441 113.664 19.0228C114.616 18.7905 115.473 18.536 116.235 18.2593C117.008 17.9827 117.63 17.7061 118.101 17.4295V22.7573ZM113.798 10.4253C113.742 9.861 113.568 9.28008 113.277 8.68257C112.997 8.074 112.549 7.52628 111.932 7.03942C111.316 6.55256 110.509 6.15422 109.512 5.8444C108.515 5.52351 107.271 5.36307 105.781 5.36307C104.38 5.36307 103.17 5.53458 102.15 5.87759C101.131 6.22061 100.273 6.64661 99.5788 7.1556C98.8953 7.66459 98.363 8.21231 97.982 8.79875C97.6011 9.3852 97.3545 9.92739 97.2425 10.4253H113.798Z" fill="#FF4F4F"/>
</svg>